<?xml version="1.0" encoding="utf-8"?>
<!-- Generator: Adobe Illustrator 25.0.1, SVG Export Plug-In . SVG Version: 6.00 Build 0)  -->
<svg version="1.1" xmlns="http://www.w3.org/2000/svg" xmlns:xlink="http://www.w3.org/1999/xlink" x="0px" y="0px"
	 viewBox="0 0 500 500" style="enable-background:new 0 0 500 500;" xml:space="preserve">
<style type="text/css">
	.st0{fill:#F5F5F5;}
	.st1{fill:#E0E0E0;}
	.st2{fill:#EBEBEB;}
	.st3{fill:#FAFAFA;}
	.st4{fill:#9A4A4D;}
	.st5{fill:#FFA8A7;}
	.st6{fill:#263238;}
	.st7{fill:#55BA88;}
	.st8{opacity:0.1;}
	.st9{fill:#75A3C0;}
	.st10{fill:#3A617A;}
	.st11{fill:#B16668;}
	.st12{fill:#37474F;}
	.st13{fill:#F0F0F0;}
	.st14{fill:#F28F8F;}
	.st15{fill:#42916D;}
	.st16{fill:#455A64;}
</style>
<g id="Floor">
	<path id="Floor_8_" class="st0" d="M90.88,441.16c87.88,35.38,230.37,35.38,318.25,0c87.88-35.38,87.88-92.74,0-128.13
		c-87.88-35.38-230.37-35.38-318.25,0C2.99,348.42,2.99,405.78,90.88,441.16z"/>
</g>
<g id="Shadows">
	<ellipse id="Shadow_3_" class="st1" cx="419.15" cy="344.97" rx="40.39" ry="19.25"/>
	<ellipse id="Shadow_2_" class="st1" cx="94.24" cy="366.16" rx="40.39" ry="19.25"/>
</g>
<g id="Draw_1_">
	<g id="Draw">
		<g id="XMLID_294_">
			<path id="XMLID_279_" class="st2" d="M244.47,441.97l-102.26-59.04c-0.66-0.38-1.2-1.31-1.2-2.07v-1.56
				c0-0.76,0.54-1.69,1.2-2.07l124.68-71.98c0.66-0.38,1.73-0.38,2.39,0l102.26,59.04c0.66,0.38,1.2,1.31,1.2,2.07v1.56
				c0,0.76-0.54,1.69-1.2,2.07l-124.68,71.98C246.2,442.35,245.13,442.35,244.47,441.97z"/>
			<path id="XMLID_280_" class="st3" d="M371.54,365.67l-124.68,71.98c-0.66,0.38-1.73,0.38-2.39,0l-102.26-59.04
				c-0.66-0.38-0.66-1,0-1.38l124.68-71.98c0.66-0.38,1.73-0.38,2.39,0l102.26,59.04C372.2,364.67,372.2,365.29,371.54,365.67z"/>
			<path id="XMLID_293_" class="st3" d="M371.54,365.67l-124.68,71.98c-0.66,0.38-1.73,0.38-2.39,0l-102.26-59.04
				c-0.66-0.38-0.66-1,0-1.38l124.68-71.98c0.66-0.38,1.73-0.38,2.39,0l102.26,59.04C372.2,364.67,372.2,365.29,371.54,365.67z"/>
			<path id="XMLID_343_" class="st1" d="M245.66,438.35v3.91c-0.43,0-0.86-0.1-1.2-0.29l-102.26-59.04c-0.66-0.38-1.2-1.31-1.2-2.07
				v-1.55c0-0.67,0.41-1.48,0.98-1.91c-0.43,0.38-0.36,0.89,0.22,1.22l102.26,59.04c0.09,0.06,0.2,0.1,0.31,0.13L245.66,438.35z"/>
		</g>
	</g>
</g>
<g id="Character_2">
	<g>
		<path id="XMLID_175_" class="st4" d="M398.88,180.99c-4.18,5.55-12.59,15.5-16.77,20.75c-2.19,2.75-3.44,6.17-3.39,9.69
			c0.04,2.61,0.75,4.79,3.3,3.68c1.84-0.8,3.02-1.76,5.71-4.42c2.42-2.39,16.43-20.1,16.43-20.1s1.15-9.92,4.77-11.01
			c3.62-1.1-1.31-4.08-1.31-4.08C406.1,175.7,403.09,175.4,398.88,180.99z"/>
		<g id="Pencil_5_">
			<g id="XMLID_165_">
				<g id="XMLID_166_">
					<path id="XMLID_174_" class="st5" d="M347.66,313.71l-26.14,29.84c-0.76,0.87-2.19,0.28-2.11-0.87l2.61-39.82L347.66,313.71z"
						/>
					<path id="XMLID_173_" class="st6" d="M319.41,342.67c-0.08,1.15,1.35,1.74,2.11,0.87l5.1-5.83l0,0c-2.49,0.26-4.92-0.9-6.29-3
						l-0.37-0.57L319.41,342.67z"/>
					<path id="XMLID_172_" class="st7" d="M385.97,148.21l-1.4,3.39l-1.71,4.09l-60.85,147.16c1.45,4.23,4.83,7.46,8.75,9.55
						c5.96,3.2,13.19,3.78,16.88,1.29l60.4-146.07l3.24-7.83C408.9,164.75,383.65,153.21,385.97,148.21z"/>
					<path id="XMLID_171_" class="st2" d="M380.59,161.11l-3.12,7.58c-0.98,2.17,3.12,5.51,8.33,8.23
						c6.9,3.63,15.75,6.15,17.05,3.28l2.31-5.59l0.79-2.01c-1.3,2.87-10.15,0.36-17.05-3.27c-4.98-2.61-8.97-5.81-8.38-7.97
						l0.01-0.02C380.52,161.26,380.55,161.19,380.59,161.11z"/>
					<path id="XMLID_170_" class="st7" d="M379.83,163.01c-2.28,5.03,23.08,16.52,25.36,11.49l3.15-7.58
						c-2.28,5.03-27.64-6.46-25.36-11.49L379.83,163.01z"/>
					<path id="XMLID_169_" class="st2" d="M385.97,148.21l-3.11,7.48c-2.27,4.92,22.1,16.26,25.18,11.93
						c0.06-0.07,0.11-0.17,0.16-0.27l3.07-7.56C408.9,164.75,383.65,153.21,385.97,148.21z"/>
					<path id="XMLID_168_" class="st8" d="M408.04,167.63l3.24-7.83c-1.07,2.24-6.82,1.1-12.58-1.27l0,0l-63.08,155.84l-14.09,29.18
						l26.14-29.84l-0.02-0.01c0,0,0,0,0,0L408.04,167.63z"/>
					<path id="XMLID_167_" class="st9" d="M399.14,116.45l-13.17,31.76c-0.99,2.14,3.05,5.47,8.2,8.19
						c6.89,3.65,15.75,6.23,17.11,3.4c0.02-0.01,0.02-0.01,0.02-0.03l12.66-30.55c3.54-6.88-8.67-15.54-17.44-16.05
						C403.24,112.95,400.46,113.88,399.14,116.45z"/>
					<path class="st10" d="M411.28,126.93l-12.58,31.6c5.13,2.11,10.22,3.24,12.04,1.88c0.16-0.13,0.27-0.26,0.36-0.36
						c0.06-0.08,0.13-0.15,0.18-0.25l13.05-31.49C422.67,132.09,411.28,126.93,411.28,126.93z"/>
				</g>
			</g>
		</g>
		<g id="Girl_1_">
			<g id="XMLID_139_">
				<polygon id="XMLID_164_" class="st11" points="450.69,336.26 443.48,338.4 440.36,327.89 447.73,325.37 				"/>
				<path id="XMLID_163_" class="st6" d="M442.42,334.84l-0.31-1.03c-0.6,0.51-0.79,6.89-2.47,10.56c-1.84,4.02-3.8,6.89-4.61,8.69
					c-1.09,2.42,3.18,3.7,7.91,1.37c2.35-1.16,6.1-4.18,6.7-6.11c0.6-1.93,0.39-4.46,0.91-5.9c0.52-1.44,2.14-3.36,2.21-4.87
					c0.04-0.83-0.76-2.38-1.54-3.66c-0.71-1.18-1.49-2.47-1.89-2.22c0.05,0.16,0.23,0.79,0.23,0.79c-0.35,0.74-1.5,2.18-3.02,2.94
					C445.43,335.95,442.8,336.09,442.42,334.84z"/>
				<path id="XMLID_162_" class="st12" d="M432.82,216.4c4.35,5.58,5.13,11.34,4.18,27.66c-0.95,16.31-1.25,29.96-1.01,30.87
					c0.24,0.92,5.36,7.47,7.02,13.43c1.66,5.96,6.13,39.79,6.13,39.79s-2.53,3.72-8.2,3.72c0,0-18.15-49.42-19.37-53.09
					c-1.22-3.67-8.96-42.32-8.96-42.32l1.18-21.82L432.82,216.4z"/>
				<path id="XMLID_161_" class="st6" d="M413.9,168.35h6.03c7.86,0,14.23-6.37,14.23-14.23l0,0c0-9.53-7.72-17.25-17.25-17.25l0,0
					c-9.53,0-17.25,7.72-17.25,17.25l0,0C399.66,161.98,406.03,168.35,413.9,168.35z"/>
				
					<rect id="XMLID_160_" x="397.28" y="322.37" transform="matrix(0.9999 0.0132 -0.0132 0.9999 4.3614 -5.2639)" class="st11" width="7.52" height="10.96"/>
				<path id="XMLID_159_" class="st12" d="M399.6,235.16c0.66-7.53,2.27-20.58,2.27-20.58l19.26-1.13
					c3.12,4.86,1.76,12.95,0.91,20.25l-11.01,43.13c0.22,2.06,2.12,6.44,0,17.54c-2.37,12.4-5.89,30.17-5.89,30.17
					s-5.49,2.77-8.2-0.24c0,0-1.46-40.3-0.44-51.03C397.62,261.66,399.15,240.32,399.6,235.16z"/>
				<path id="XMLID_158_" class="st6" d="M397.26,329.57l0.01-1.08c-0.72,0.3-2.8,6.34-5.5,9.35c-2.96,3.29-5.67,5.45-6.99,6.93
					c-1.76,1.98,1.93,4.48,7.14,3.66c2.59-0.41,7.07-2.18,8.22-3.84c1.14-1.67,1.7-4.14,2.63-5.36c0.93-1.22,3.05-2.57,3.56-3.99
					c0.28-0.78-0.02-2.5-0.38-3.96c-0.33-1.34-0.69-2.8-1.15-2.68c0,0.16-0.01,0.82-0.01,0.82c-0.55,0.6-2.08,1.63-3.76,1.91
					C399.8,331.52,397.25,330.88,397.26,329.57z"/>
				<g id="XMLID_156_">
					<path id="XMLID_157_" class="st13" d="M404.17,199.49c-0.47,4.4-3.31,23.51-3.31,23.51c14.52,7.75,32.53,2.61,35.28-0.58
						c-2.5-8.22-5.18-12.89-7.24-15.08l3.13-12.08c0,0-6.99-7.46-0.76-19.21l-7.7-0.63l-11.31-0.33c-2.7,0.15-4.63,0.41-4.63,0.41
						c-1.36,2.21-3.52,6.22-5.29,10.75C401.19,189.17,399.99,193.44,404.17,199.49z"/>
				</g>
				<g id="XMLID_154_">
					<path id="XMLID_155_" class="st11" d="M405.82,144.38c-1.82,1.08-4.07,5.66-3.85,15.26c0.19,8.14,2.83,10.15,4.15,10.73
						c1.32,0.58,3.88,0.23,6.36-0.19v4.89c0,0-3.43,3.99-3.22,6.23c0.22,2.24,4.96,2.77,8.17,0.58s5.92-6.45,5.92-6.45l-0.06-11.23
						c0,0,1.46,1.42,3.94-0.75c2.05-1.79,2.74-4.81,1.14-6.43c-1.59-1.62-4.54-1.18-5.67,1.13c0,0-3.96,0.14-9.24-2.75
						C408.2,152.5,406.17,147.54,405.82,144.38z"/>
				</g>
				<g id="XMLID_152_">
					<path id="XMLID_153_" class="st6" d="M411.06,157.6c-0.03,0.59,0.4,1.08,0.97,1.11c0.56,0.03,1.05-0.43,1.08-1.01
						c0.03-0.59-0.4-1.08-0.97-1.11C411.57,156.56,411.09,157.02,411.06,157.6z"/>
				</g>
				<g id="XMLID_150_">
					<path id="XMLID_151_" class="st4" d="M410.79,164.5l-2.38,0.76c0.2,0.68,0.89,1.06,1.55,0.85
						C410.61,165.91,410.98,165.18,410.79,164.5z"/>
				</g>
				<g id="XMLID_148_">
					<path id="XMLID_149_" class="st6" d="M402.67,154.46l2.07-1.44c-0.38-0.59-1.15-0.75-1.72-0.35
						C402.45,153.07,402.29,153.87,402.67,154.46z"/>
				</g>
				<g id="XMLID_146_">
					<path id="XMLID_147_" class="st6" d="M403.14,156.86c-0.03,0.59,0.4,1.08,0.97,1.11c0.56,0.03,1.05-0.43,1.08-1.01
						c0.03-0.59-0.4-1.08-0.97-1.11C403.66,155.82,403.17,156.28,403.14,156.86z"/>
				</g>
				<g id="XMLID_144_">
					<polygon id="XMLID_145_" class="st4" points="407.97,156.28 407.81,162.44 404.57,161.43 					"/>
				</g>
				<g id="XMLID_142_">
					<path id="XMLID_143_" class="st4" d="M412.49,170.19c2.62-0.34,8-1.89,8.84-4.02c0,0-0.28,1.34-1.89,2.72
						c-1.61,1.38-6.96,2.93-6.96,2.93V170.19z"/>
				</g>
				<path id="XMLID_141_" class="st6" d="M434.03,156.8l3.66-2.68c-0.72-1.06-2.13-1.31-3.14-0.57
					C433.55,154.28,433.31,155.74,434.03,156.8z"/>
				<path id="XMLID_140_" class="st6" d="M416,253.46l-3.14-15.82c0,0-4.69-1.63-7.86-4.01c0,0,2.59,3.34,5.5,5.07L416,253.46z"/>
			</g>
			<path id="XMLID_138_" class="st6" d="M431.98,168.42c-3.35-1.69-2.88-4.85-1.2-8.2c1.69-3.35,3.96-5.6,7.3-3.92
				c3.35,1.69,4.69,5.76,3.01,9.11C439.41,168.76,435.33,170.11,431.98,168.42z"/>
		</g>
		<g id="Arm_3_">
			<path id="XMLID_137_" class="st11" d="M378.12,218.44c1.68,0.43,3.31,0.3,5.62,1.09c2.04,0.7,2.9,0.96,4.9,0.83
				c2.18-0.13,7.87-2.83,12.92-5.89c5.96-3.61,12.14-10.19,14.39-13.38c4.57-6.47,9.63-16.67,12.05-20.58
				c2.42-3.9,3.25-4.47,3.25-4.47c3.16,0.13,6.29,3.02,4.2,10.74c-1.74,6.39-6.41,14.66-12.16,21.61
				c-2.79,3.37-7.7,8.37-15.34,13.04c-5.34,3.26-10.03,4.88-15.96,6.87c-1.62,0.54-2.68,1.34-5.65,2.74
				c-1.19,0.56-2.49,1.22-3.79,1.4c-1.66,0.23-3.35,0.27-5.01,0.02c-2.09-0.32-4.13-1.12-5.76-2.47c-0.9-0.74-1.67-1.65-2.13-2.72
				c-0.46-1.07-0.6-2.29-0.26-3.41c0.07-0.23,0.16-0.45,0.34-0.61c0.31-0.29,0.78-0.29,1.21-0.28c2.38,0.08,4.93,0.52,7.29,0.36
				c2-0.14,3.39-0.52,3.1-0.8c-0.29-0.28-1.45-0.12-3.06-0.81c-1.53-0.66-2.64-2.22-2.21-3.05
				C376.51,217.85,376.44,218.01,378.12,218.44z"/>
		</g>
		<path id="Hand_3_" class="st11" d="M367.08,193.87c0,0,3.22-1.6,7.36-0.92c2,0.33,2.01,7.01-4.43,9.13
			c-4.19,1.37-6.71,0.77-8.06,4.22c0,0-2.71-0.36-2.1-4.22c0.62-3.86,2.3-7.37,5.11-10.69c1.85-2.18,1.97-4.02,2.88-3.4
			c1.02,0.7,0.55,2.73,0.55,2.73L367.08,193.87z"/>
	</g>
</g>
<g id="Character_1">
	<g>
		<g id="Back_Arm">
			<path id="XMLID_300_" class="st14" d="M107.47,198.74c4.46,5.33,12.59,15.5,16.77,20.75c2.19,2.75,3.44,6.17,3.39,9.69
				c-0.04,2.61-0.75,4.79-3.3,3.68c-1.84-0.8-3.02-1.76-5.71-4.42c-2.42-2.39-11-12.7-11-12.7s-6.58-17.31-10.2-18.41
				c-3.62-1.1-6.13-0.82-6.13-0.82C95.66,195.02,101.81,191.98,107.47,198.74z"/>
			<path id="XMLID_299_" class="st1" d="M89.13,193.05c4.47-3.36,12.04-2.48,16.22,2.58c3.06,3.71,10.36,12.76,10.36,12.76
				s-2.09,5.81-9.4,8.42L89.13,193.05z"/>
		</g>
		<g id="Brush_1_">
			<g id="XMLID_319_">
				<path id="XMLID_716_" class="st7" d="M174.68,312.45L174.68,312.45c0.01,0-12.55-45.53-30.27-88.41
					c-17.56-42.52-44.66-85.64-49.19-92.16c-0.02-0.03-0.04-0.05-0.05-0.08c-0.02-0.03-0.05-0.07-0.07-0.1l-0.01,0
					c-0.63-0.83-1.61-1.38-2.74-1.38c-1.9,0-3.44,1.54-3.44,3.44c0,0.27,0.04,0.53,0.1,0.78l-0.01,0c0,0,12.05,58.88,29.34,100.69
					c17.29,41.81,40.95,83.65,40.95,83.65l0,0c0.57,0.96,1.72,1.65,3.39,1.87c3.74,0.49,8.64-1.54,10.94-4.53
					C174.66,314.86,174.98,313.54,174.68,312.45z"/>
				<path id="XMLID_315_" class="st8" d="M88.91,133.77c0,0.27,0.04,0.53,0.1,0.78l-0.01,0c0,0,12.05,58.88,29.34,100.69
					c11.63,28.12,26.14,56.26,34.4,71.67l9.06-5.74c0,0-72.13-169.53-69.44-170.83C90.45,130.34,88.91,131.87,88.91,133.77z"/>
			</g>
			<g id="XMLID_317_">
				<path id="XMLID_714_" class="st2" d="M159.29,318.89c-1.45,7.35-3.97,16.78,0.62,29.05c5.21,13.92,20.95,17.76,28.58,17.77
					c10.57,0.02,17.26-3.92,17.26-3.92s-5.47-2.1-7.73-10c-0.47-1.65-0.68-3.41-0.83-5.26c-0.48-6.39-0.7-13.36-6.29-21.1
					c-7.14-9.88-16.22-12.97-16.22-12.97L159.29,318.89z"/>
				<path id="XMLID_292_" class="st15" d="M198.02,351.79c-0.47-1.65-0.68-3.41-0.82-5.26c-0.01,0.05-1.91,8.34-6.58,7.86
					c-4.68-0.49-6-5.46-12.21-5.46c-7.55,0-10.16,6.34-16.63,2.93c6.48,10.89,19.84,13.85,26.7,13.87
					c10.57,0.02,17.26-3.92,17.26-3.92S200.28,359.69,198.02,351.79z"/>
				<path id="XMLID_50_" class="st8" d="M178.28,354.46c-12.22-8.48-9.92-31.04-9.56-34.68l-9.43-0.89
					c-1.45,7.35-3.97,16.78,0.62,29.05c5.21,13.92,20.95,17.76,28.58,17.77c10.57,0.02,17.26-3.92,17.26-3.92
					S192.59,364.39,178.28,354.46z"/>
			</g>
			<g id="XMLID_318_">
				<path id="XMLID_713_" class="st16" d="M159.29,318.89c0.57,0.96,1.72,1.64,3.39,1.86c3.74,0.49,8.64-1.54,10.94-4.53
					c1.04-1.36,1.37-2.69,1.07-3.77c-1.77-6.32-3.82-13.17-6.05-20.37c0.44,1.39,0.04,3.11-1.32,4.88
					c-2.9,3.78-9.09,6.34-13.81,5.72c-2.26-0.3-3.78-1.27-4.43-2.61C152.98,307.4,156.66,314.25,159.29,318.89z"/>
				<path id="XMLID_316_" class="st12" d="M161.79,301.17c-2.68,1.24-5.7,1.86-8.28,1.52c-2.26-0.3-3.78-1.27-4.43-2.61
					c3.9,7.33,7.58,14.18,10.21,18.83c0.57,0.96,1.72,1.64,3.39,1.86c1.88,0.25,4.05-0.14,6.04-0.97l0.11-0.19L161.79,301.17
					L161.79,301.17z"/>
			</g>
		</g>
		<g id="Boy">
			<g id="XMLID_197_">
				
					<ellipse id="XMLID_261_" transform="matrix(0.9732 -0.2298 0.2298 0.9732 -35.7262 26.3863)" class="st6" cx="95.45" cy="166.61" rx="10.85" ry="10.85"/>
				<g id="XMLID_199_">
					<g id="XMLID_200_">
						<g id="XMLID_201_">
							
								<rect id="XMLID_255_" x="69.47" y="350.13" transform="matrix(-1 -1.224647e-16 1.224647e-16 -1 146.5895 713.3478)" class="st5" width="7.64" height="13.08"/>
							<polygon id="XMLID_254_" class="st5" points="95.96,349.44 103.6,349.7 103.98,335.86 96.35,335.6 							"/>
							<path id="XMLID_253_" class="st12" d="M69.98,246.46c0,7.3-0.94,51.51-0.94,51.51c-0.18,2.1-2.15,5.97-1.72,14.03
								c0.58,10.95,1.53,39.43,1.53,39.43s3.58,3.55,8.64,0c0,0,6.92-39.39,8.29-50.24c1.19-9.47,3.22-35.21,3.22-35.21l7.08,30.29
								c0,0-1.25,7.12-1.52,12.15c-0.27,5.03,1.3,31.33,1.3,31.33s3.88,2.68,8.31,0.32c0,0,6.14-39.69,6.93-44.23
								c0.79-4.54-5.37-49.37-5.37-49.37H69.98z"/>
							<path id="XMLID_252_" class="st13" d="M77.32,193.68c-3.33,0.59-5.98,3.11-6.71,6.42c-0.36,1.64-0.63,3.59-0.63,5.8v14.97
								v25.59c5.36,5.83,24.03,8.54,35.73,0c0,0-0.23-35.83-1.11-41.71c-1.52-10.23-6.42-13.87-11.33-13.49l-11.79,1.69
								L77.32,193.68z"/>
							<g id="XMLID_232_">
								<g id="XMLID_242_">
									<path id="XMLID_250_" class="st6" d="M76.7,174.32c0,0,1.76,8.26,2.46,9.61c0.7,1.36,2.16,1.74,2.16,1.74l-0.12-5.81
										L76.7,174.32z"/>
									<path id="XMLID_249_" class="st6" d="M78.91,162.49c0,0-1.89-0.32-3.37,1.18c-1.45,1.48-0.64,6.11,1.16,10.64l3.31,0.38
										L78.91,162.49z"/>
									<path id="XMLID_248_" class="st5" d="M81,174.71c-0.66,0.4-1.61-0.88-2.43-1.74c-0.82-0.86-3.49-2.03-4.82,0.78
										c-1.36,2.86,1.18,6.65,3.28,7.31c3.63,1.14,4.17-1.19,4.17-1.19l0.28,13.08c0,0,2.37,5.81,8.8,6.68
										c6.43,0.87,5.11-4.43,2.99-7.03l-0.01-3.98c0,0,3.29,0.5,4.89,0.25c2.67-0.41,4.34-2.52,5.15-5.4
										c1.3-4.64,1.79-8.38,0.69-17.5c-1.21-9.99-12.83-10.1-19.11-6.15C78.61,163.78,81,174.71,81,174.71z"/>
									<path id="XMLID_247_" class="st6" d="M81,175.82c-0.33,0.01-1.6-2.1-2.43-2.85c-1.15-1.04,0.33-10.48,0.33-10.48
										s-1.1-2.34,1.1-4.77c1.57-1.73,4.19-1.92,8.67-2.62c2.35-0.37,5.91-1.03,8.25-1.46c2.8-0.52,5.12-1.07,7.1,0.65
										c1.54,1.34,2.2,3.7,1.37,5.56c-0.19,0.44-0.48,0.83-0.8,1.19c-0.57,0.63-1.21,1.13-2.02,1.39c0,0-1.22,1.08-5.47,1.6
										c-4.25,0.52-10.86-0.1-11.77-0.22c-1.23-0.17-1.49,1.03-2.16,4.29C82.61,170.95,82.12,175.8,81,175.82z"/>
									<path id="XMLID_244_" class="st6" d="M78.91,163.23l-4.01-2.15c0.57-1.15,1.93-1.6,3.04-1.01
										C79.04,160.66,79.48,162.08,78.91,163.23z"/>
									<path id="XMLID_243_" class="st14" d="M93.26,188.62c0,0-5.95-1.2-8.03-2.31c-1.39-0.74-2.54-2.02-2.88-2.85
										c0,0,0.39,1.77,1.63,3.36c1.52,1.95,9.28,3.38,9.28,3.38L93.26,188.62z"/>
								</g>
								<g id="XMLID_233_">
									<path id="XMLID_241_" class="st6" d="M91.83,173.22c0,0.68-0.53,1.24-1.19,1.24c-0.66,0-1.19-0.56-1.19-1.24
										c0-0.68,0.53-1.24,1.19-1.24C91.3,171.98,91.83,172.53,91.83,173.22z"/>
									<path id="XMLID_240_" class="st6" d="M90.57,168.71l-2.55,1.41c-0.38-0.73-0.11-1.64,0.59-2.03
										C89.32,167.7,90.19,167.98,90.57,168.71z"/>
									<path id="XMLID_239_" class="st14" d="M92.72,181.46l2.72,1.02c-0.27,0.78-1.1,1.18-1.85,0.9
										C92.85,183.1,92.46,182.24,92.72,181.46z"/>
									<path id="XMLID_238_" class="st6" d="M102.47,169.71l-2.33-1.79c0.47-0.67,1.38-0.81,2.02-0.31
										C102.81,168.1,102.94,169.04,102.47,169.71z"/>
									<path id="XMLID_236_" class="st6" d="M101.75,172.88c0,0.68-0.53,1.24-1.19,1.24c-0.66,0-1.19-0.56-1.19-1.24
										c0-0.68,0.53-1.24,1.19-1.24C101.22,171.64,101.75,172.19,101.75,172.88z"/>
									<polygon id="XMLID_234_" class="st14" points="95.68,171.75 96.07,178.92 99.81,177.64 									"/>
								</g>
							</g>
							<path id="XMLID_231_" class="st6" d="M77.11,359.44v-1.09c0.73,0.32,2.43,6.8,5.46,9.56c2.41,2.2,5.7,4.74,6.53,7.19
								c0.87,2.55-4.58,3.96-6.83,3.56c-2.62-0.46-7.15-2.31-8.29-4.01c-1.14-1.71-1.67-4.23-2.6-5.48
								c-0.93-1.25-3.06-2.65-3.56-4.1c-0.27-0.8,0.05-2.54,0.44-4.01c0.35-1.35,0.74-2.84,1.2-2.71c0,0.16,0,0.83,0,0.83
								c0.55,0.61,2.09,1.22,3.82,1.29C74.41,360.52,77.12,360.29,77.11,359.44z"/>
							<path id="XMLID_202_" class="st6" d="M103.68,347.34c0.4,0.01,0.72,0.57,1.59,1.52c1.06,1.14,2.79,2.38,4.49,3.23
								c2.86,1.43,8.42,3.63,10.94,4.77c1.57,0.71,1.5,2.61-0.13,3.69c-1.63,1.08-5.55,1.86-10.26,0.81
								c-2.57-0.57-5.91-2.94-8.02-2.82c-2.12,0.13-6.07,0.1-7.63-0.98c-1.56-1.08-0.94-3.37-0.5-5.35
								c0.48-2.16,1.17-5.45,1.88-5.31l-0.02,0.68c0.92,1.39,5.59,1.96,7.61,0.93L103.68,347.34z"/>
						</g>
					</g>
				</g>
				<path id="XMLID_198_" class="st6" d="M88.99,265.98c0,0,6.11-1.72,10.64-6.1c0,0-2.05,3.84-8.16,7.42l2.29,19.53L88.99,265.98z"
					/>
			</g>
		</g>
		<g id="Arm">
			<g id="XMLID_194_">
				<path id="XMLID_195_" class="st5" d="M131.75,237.48c-1.68,0.43-3.31,0.3-5.62,1.09c-2.04,0.7-2.9,0.96-4.9,0.83
					c-2.18-0.13-7.87-2.83-12.92-5.89c-5.96-3.61-12.14-10.19-14.39-13.38c-4.57-6.47-9.63-16.67-12.05-20.58
					c-2.42-3.9-4.71-4.31-7.4-4.2c-3.16,0.13-5.18,3.03-2.4,9.03c2.78,6.01,8.77,16.09,14.52,23.04c2.79,3.37,7.7,8.37,15.34,13.04
					c5.34,3.26,10.03,4.88,15.96,6.87c1.62,0.54,2.68,1.34,5.65,2.74c1.19,0.56,2.49,1.22,3.79,1.4c1.66,0.23,3.35,0.27,5.01,0.02
					c2.09-0.32,4.13-1.12,5.76-2.47c0.9-0.74,1.67-1.65,2.13-2.72c0.46-1.07,0.6-2.29,0.26-3.41c-0.07-0.23-0.16-0.45-0.34-0.61
					c-0.31-0.29-0.78-0.29-1.21-0.28c-2.38,0.08-4.93,0.52-7.29,0.36c-2-0.14-3.39-0.52-3.1-0.8c0.29-0.28,1.45-0.12,3.06-0.81
					c1.53-0.66,2.64-2.22,2.21-3.05C133.37,236.88,133.43,237.05,131.75,237.48z"/>
			</g>
			<path id="XMLID_178_" class="st1" d="M75.49,194.24c-2.44,0.12-5.58,1.6-5.52,5.75c0.06,4.15,6.43,16.2,11.35,23.08
				c0,0,7.66-0.49,11.69-6.27c0,0-7.16-11.39-9.11-15.03C82.16,198.51,79.04,194.06,75.49,194.24z"/>
		</g>
		<path id="Hand" class="st5" d="M138.96,211.48c0,0-2.9-1.46-7.04-0.78c-2,0.33-2.01,7.01,4.43,9.13c4.19,1.37,6.71,0.77,8.06,4.22
			c0,0,2.71-0.36,2.1-4.22c-0.62-3.86-2.3-7.37-5.11-10.69c-1.85-2.18-1.97-4.02-2.88-3.4c-1.03,0.7-0.88,2.85-0.88,2.85
			L138.96,211.48z"/>
	</g>
</g>
<g id="Paint_Pot_1_">
</g>
<g id="Pencils_1_">
</g>
</svg>
