<?xml version="1.0" encoding="utf-8"?>
<!-- Generator: Adobe Illustrator 25.0.1, SVG Export Plug-In . SVG Version: 6.00 Build 0)  -->
<svg version="1.1" id="_x2018_лой_x5F_1" xmlns="http://www.w3.org/2000/svg" xmlns:xlink="http://www.w3.org/1999/xlink"
	 x="0px" y="0px" viewBox="0 0 2800 2000" style="enable-background:new 0 0 2800 2000;" xml:space="preserve">
<style type="text/css">
	.st0{fill:#BFD6D7;enable-background:new    ;}
	.st1{enable-background:new    ;}
	.st2{fill:#EABB74;}
	.st3{fill:#FFB27D;}
	.st4{fill:#233862;}
	.st5{fill:#2C3A64;}
	.st6{fill:#496E8E;enable-background:new    ;}
	.st7{fill:#2B478B;}
	.st8{fill:#ED975D;}
	.st9{fill:#4E8264;enable-background:new    ;}
	.st10{fill:#FFFFFF;}
	.st11{fill:#2A4E96;}
	.st12{fill:#EBF3FA;}
	.st13{fill:#6FB088;enable-background:new    ;}
	.st14{fill:#2E3552;}
	.st15{fill:#4E8264;}
	.st16{fill:#7BA1BC;enable-background:new    ;}
	.st17{fill:#496E8E;}
	.st18{fill:#ED985F;}
	.st19{fill:#7BA1BC;}
	.st20{fill:#163560;}
	.st21{fill:#FCA56B;}
</style>
<g>
	<path class="st0" d="M2129.5,668.69v900.1c0,15.75-11.37,28.52-25.38,28.52H805.47c-14.02,0-25.38-12.77-25.38-28.52v-900.1
		c0-15.76,11.37-28.52,25.38-28.52h1298.65C2118.14,640.17,2129.5,652.93,2129.5,668.69z"/>
	<g class="st1">
		<path class="st2" d="M2065.31,617.3v72.99H616.02V617.3c0-15.06,12.21-27.26,27.26-27.26h1394.77
			C2053.1,590.04,2065.31,602.24,2065.31,617.3z"/>
	</g>
	<g>
		<path class="st3" d="M958.56,716.75c-1.56,1.78-1.75,3.78-0.98,5.91c0,0.01,0.01,0.02,0.02,0.03c1.42,3.94,6.13,8.33,11.6,12.72
			c0.7,0.56,1.32,1.08,1.86,1.55c0.14,0.12,0.28,0.25,0.42,0.38c0.11,0.1,0.22,0.2,0.32,0.29c5.1,4.7,3.18,5.78,12.34,15.31
			c10.44,10.87,17.63,11.06,19.68,10.07c1.73-0.84-1.79-6.61-5.68-13.08c-0.19-0.31-0.37-0.63-0.57-0.94
			c-0.52-0.86-1.03-1.74-1.55-2.6c-4.57-7.8-3.39-11.45-2.31-23.06c0.88-9.43,14.67-52.67,14.67-52.67l-20.01-3.45
			c0,0-6.03,34.43-12.67,39.74c-3.55,2.83-7.53,2.86-10.94,4.96c-0.24,0.15-0.48,0.29-0.71,0.45
			C962.09,713.63,960.12,714.96,958.56,716.75z"/>
		<path class="st4" d="M958.56,716.75c-1.56,1.78-1.75,3.78-0.98,5.91c0,0.01,0.01,0.02,0.02,0.03c1.74,3.93,6.33,8.31,11.62,12.68
			c0.69,0.57,1.3,1.1,1.84,1.59c0.14,0.12,0.28,0.25,0.42,0.38c0.11,0.1,0.22,0.2,0.32,0.29c5.1,4.7,3.18,5.78,12.34,15.31
			c10.44,10.87,17.63,11.06,19.68,10.07c1.73-0.84-1.79-6.61-5.68-13.08c-2.03-0.74-11.48-4.58-18.62-13.72
			c-6.29-8.02-10.48-18.34-14.76-24.31c-0.24,0.15-0.48,0.29-0.71,0.45C962.09,713.63,960.12,714.96,958.56,716.75z"/>
		<path class="st3" d="M1119.93,704.25c1.24,6.18,10.04,5.15,19.88,2.74c9.84-2.4,7.5,0.45,21.5-1.1c14-1.55,18.24-6.77,18.67-8.85
			c0.38-1.85-6.54-2.5-13.96-3.35c-0.93-0.11-1.87-0.22-2.81-0.34c-8.38-1.05-14.51-6.46-22.12-10.9
			c-7.21-4.21-17.97-21.34-17.97-21.34l-19.2,1.52c0,0,10.08,15.3,13.97,21.96c2.29,3.91,2.17,9.09,1.88,13.09
			C1119.63,699.85,1119.49,702.07,1119.93,704.25z"/>
		<path class="st4" d="M1139.81,706.99c9.84-2.4,7.5,0.45,21.5-1.1c14-1.55,18.24-6.77,18.67-8.85c0.38-1.85-6.54-2.5-13.96-3.35
			l-0.07,0.14c0,0-8.4,5.95-20.05,6.23c-9.5,0.23-19.56-2.49-26.12-2.38c-0.15,2.17-0.29,4.39,0.15,6.57
			C1121.17,710.43,1129.97,709.4,1139.81,706.99z"/>
		<path class="st5" d="M1046.34,581.47l-17.95,48.3l-23.44,63.07c0,0-6.36,0.61-12.45-1.14c-5.61-1.62-12.04-5.86-12.04-5.86
			s6.51-67.72,18.65-106.59c3.11-9.98,6.6-18.05,10.44-22.59C1028.38,534.42,1046.34,581.47,1046.34,581.47z"/>
		<path class="st6" d="M1028.09,504.76c-11.76-3.79-45.3,1.08-78.99,7.67l-7.05-11.64l-72.78-5.68c0,0-24.01,53.26-10.87,87.19
			c1.93,4.99,5.77,8.19,12.32,8.29c0,0,1.06,0,1.06,0c0,0,43.31-0.03,57.38-0.03c36.19,0,76.6-24.88,81.82-25.92
			c8.56-1.71,11.98,15.4,20.53,33.36c8.55,17.97,80.42,79.56,80.42,79.56s11.04,0.11,15.61-1.6c4.91-1.84,6.7-4.23,6.7-4.23
			S1054.61,513.31,1028.09,504.76z"/>
		<path class="st7" d="M917.93,279.24c-10.2-2.62-24.16-0.01-26.47,0.22c-27.69,2.73-37,33.62-32.8,57.58
			c3.87,22.12-7.35,28.24-20.35,45.71c-26.07,35.03-9.03,64.56,11.54,72.18c12.34,4.57,29.48-6.96,29.48-6.96
			c0.31,0.12,53.84-35.07,75.79-54.91C991.65,378.76,943.92,285.93,917.93,279.24z"/>
		<path class="st3" d="M922.02,380.55c0.73,2.56-11.38,7.27-20.63,5.54c-8.7-1.62-18.45-11.81-16.44-12.76
			c3.33-1.58,5.57-5.52,3.75-26.78l1.66,0.19l27.83,3.18c0,0,0.08,8.67,0.73,16.79C919.46,373.52,920.84,376.37,922.02,380.55z"/>
		<path class="st8" d="M918.19,349.91c0,0,0.08,8.67,0.73,16.79c-15.36,0.82-24.61-12.49-28.56-19.97L918.19,349.91z"/>
		<path class="st3" d="M923.93,357.18c0,0-36.21,3.57-38.09-19.01c-1.88-22.58-7.81-37.33,15.23-40.57
			c23.04-3.23,28.25,5.01,30.71,12.39C934.25,317.38,933.3,355.67,923.93,357.18z"/>
		<path class="st7" d="M920.05,294.04c0,0-4.56,27.59-25.18,34.14c-15.04,4.78-21.86,1.63-21.86,1.63s7.24-9.61,9.82-22.95
			c0.76-3.93,3.56-7.17,7.36-8.42C900.89,294.9,913.84,285.29,920.05,294.04z"/>
		<path class="st7" d="M913.23,299.92c0,0,6.82,1.52,12.87,10.33c3.3,4.81,7.13,16.94,6.48,22.31c0,0,6.34-25.53-2.9-35.03
			C919.88,287.45,913.23,299.92,913.23,299.92z"/>
		<path class="st9" d="M856.82,454.74c0.65,2.74,1.2,5.27,1.65,7.59c0.74,3.76,1.24,6.99,1.6,9.85c1.11,8.91,0.77,14.18,1.52,19.96
			c0.41,3.23,1.18,6.61,2.71,10.86c1.5,4.14,40.85,7.82,63.23,6.34c7.11-0.46,12.52-1.46,14.45-3.12c7.99-6.94,7.19,8.32,8.28-64.67
			c0.53-35.6-30.21-67.31-30.21-67.31s-2.45,15.21-32.94-2.89c-1.08-0.63-13.09,17.15-24.65,39.04
			C849.73,434.57,853.23,439.68,856.82,454.74z"/>
		<path class="st6" d="M1028.39,629.77l-23.44,63.07c0,0-6.36,0.61-12.45-1.14c-5.61-1.62-12.04-5.86-12.04-5.86
			s6.51-67.72,18.65-106.59L1028.39,629.77z"/>
		<path class="st9" d="M920.05,374.23c0,0,31.37,5.32,35.05,18.82c3.68,13.51,29.13,89.04,29.13,89.04s-19.72,6.73-27.09-0.64
			c-7.37-7.37-25.63-68.35-25.63-68.35L920.05,374.23z"/>
		<path class="st10" d="M915.58,343.86c0,0,1.52,3.71,5.53,3.71c4.01,0,5.09-0.6,5.85-1.45c0.76-0.85,1.51-2.48,1.51-2.48
			S921.82,342.33,915.58,343.86z"/>
		<path class="st9" d="M860.07,472.18c1.11,8.91,0.77,14.18,1.52,19.96c28.48,0.09,66.56-22,66.56-22L860.07,472.18z"/>
		<path class="st9" d="M928.15,451.47c0,0-44.37-1.32-51.85-26.54c-8.22-27.71-17.42,11.39-17.42,11.39l4.9,24.96h48.68
			L928.15,451.47z"/>
		<path class="st9" d="M887.11,371.35c0,0-28.8,1.88-36,13.12c-7.2,11.23-16.13,68.27-12.39,87.86c3.74,19.59,95.98-3.74,95.98-3.74
			l-2.94-17c0,0-53.23,0.31-56.27-6.62C871.46,435.74,887.11,371.35,887.11,371.35z"/>
		<path class="st3" d="M1026.15,394.56c-0.25,0.75,4.33,8.29,10.87,6.98c4.08-0.82,9.38-9.6,4.72-11.53
			C1033.96,386.78,1026.81,392.57,1026.15,394.56z"/>
		<path class="st3" d="M928.15,457.31l3.21-5.04c0,0,2.54-0.83,6.11-3.33c4.24-2.98,3.68-7.43,5.8-6.96l0.03,9.8l-0.23,0.03
			c9.09,2.43,19.73-0.21,19.94,2.05c0.59,6.23-4.23,9.03-8.27,10.98c-3.09,1.49-6.6,3.73-12.18,2c-4.08-1.27-10.5-2.56-10.5-2.56
			L928.15,457.31z"/>
	</g>
	<g>
		<g>
			
				<rect x="1247.16" y="689.7" transform="matrix(0.4709 -0.8822 0.8822 0.4709 111.0406 1565.6434)" class="st11" width="227.16" height="1.1"/>
		</g>
		<g>
			
				<rect x="1745.22" y="566.46" transform="matrix(0.7334 -0.6798 0.6798 0.7334 20.2046 1361.3337)" class="st11" width="1.1" height="176.89"/>
		</g>
		<g>
			<path class="st12" d="M1880.63,757.64c1.79,12.99-1.78,25.52-8.97,35.24c-7.19,9.72-17.99,16.61-30.68,18.36l-537.63,73.87
				c-27.44,3.77-52.81-14.41-56.38-40.4c-1.79-12.99,2.2-25.58,10.07-35.38c7.86-9.81,19.61-16.83,33.33-18.72l537.63-73.87
				C1853.38,713.25,1877.06,731.66,1880.63,757.64z"/>
		</g>
	</g>
	<g>
		<path class="st13" d="M1519.63,1151.2h-157.74c-6.38,0-11.56-5.18-11.56-11.56V981.9c0-6.38,5.18-11.56,11.56-11.56h157.74
			c6.38,0,11.56,5.18,11.56,11.56v157.74C1531.19,1146.03,1526.02,1151.2,1519.63,1151.2z"/>
		<g>
			<path class="st10" d="M1373.44,1113.37l35.14-63.36c4.09-7.38,14.45-8.03,19.43-1.23l20.27,27.65
				c4.31,5.88,12.93,6.35,17.85,0.97l0,0c5.11-5.58,14.12-4.83,18.23,1.52l21.88,33.77c4.98,7.69-0.54,17.84-9.7,17.84h-112.99
				C1374.73,1130.54,1369.16,1121.08,1373.44,1113.37z"/>
			<path class="st10" d="M1442.79,1020.4c0-7.64,6.19-13.83,13.82-13.83c7.64,0,13.83,6.19,13.83,13.83
				c0,7.63-6.19,13.82-13.83,13.82C1448.98,1034.23,1442.79,1028.04,1442.79,1020.4z"/>
		</g>
	</g>
	<g>
		<path class="st13" d="M1134.3,554.04l-156.29,21.32c-6.33,0.86-12.15-3.57-13.02-9.89l-21.32-156.29
			c-0.86-6.33,3.57-12.15,9.89-13.02l156.3-21.32c6.33-0.86,12.15,3.57,13.02,9.89l21.32,156.3
			C1145.06,547.35,1140.63,553.18,1134.3,554.04z"/>
		<g>
			<path class="st10" d="M984.34,536.32l26.26-67.53c3.06-7.86,13.23-9.91,19.09-3.84l23.82,24.66c5.07,5.25,13.67,4.54,17.82-1.45
				l0,0c4.31-6.22,13.33-6.7,18.27-0.96l26.24,30.51c5.98,6.95,1.88,17.75-7.2,18.99l-111.96,15.27
				C987.94,553.15,981.14,544.53,984.34,536.32z"/>
			<path class="st10" d="M1040.49,434.83c-1.03-7.57,4.26-14.54,11.83-15.57c7.57-1.03,14.54,4.26,15.57,11.83
				c1.03,7.57-4.26,14.53-11.83,15.57C1048.49,447.69,1041.52,442.39,1040.49,434.83z"/>
		</g>
	</g>
	<path class="st14" d="M2606.14,1800.75l-2396.18-0.83c-1.61,0-2.92-1.32-2.92-2.92l0-1.5c0-1.61,1.32-2.92,2.92-2.92l2396.18,0.83
		c1.61,0,2.92,1.32,2.92,2.92v1.5C2609.06,1799.43,2607.75,1800.75,2606.14,1800.75z"/>
	<g class="st1">
		<path class="st15" d="M1252,1158.31h-9.92c-0.9,0-1.63-0.73-1.63-1.63s0.73-1.63,1.63-1.63h9.85c0.9,0,1.66,0.73,1.66,1.63
			S1252.9,1158.31,1252,1158.31z M1232.23,1158.31h-9.85c-0.9,0-1.63-0.73-1.63-1.63s0.73-1.63,1.63-1.63h9.85
			c0.9,0,1.63,0.73,1.63,1.63S1233.13,1158.31,1232.23,1158.31z M1212.53,1158.31h-9.85c-0.9,0-1.63-0.73-1.63-1.63
			s0.73-1.63,1.63-1.63h9.85c0.9,0,1.63,0.73,1.63,1.63S1213.43,1158.31,1212.53,1158.31z M1192.83,1158.31h-9.85
			c-0.9,0-1.63-0.73-1.63-1.63s0.73-1.63,1.63-1.63h9.85c0.9,0,1.63,0.73,1.63,1.63S1193.73,1158.31,1192.83,1158.31z
			 M1173.12,1158.31h-9.85c-0.9,0-1.63-0.73-1.63-1.63s0.73-1.63,1.63-1.63h9.85c0.9,0,1.63,0.73,1.63,1.63
			S1174.02,1158.31,1173.12,1158.31z M1153.42,1158.31h-9.85c-0.9,0-1.63-0.73-1.63-1.63s0.73-1.63,1.63-1.63h9.85
			c0.9,0,1.63,0.73,1.63,1.63S1154.32,1158.31,1153.42,1158.31z M1133.72,1158.31h-9.85c-0.9,0-1.63-0.73-1.63-1.63
			s0.73-1.63,1.63-1.63h9.85c0.9,0,1.63,0.73,1.63,1.63S1134.62,1158.31,1133.72,1158.31z M1114.02,1158.31h-9.85
			c-0.9,0-1.63-0.73-1.63-1.63s0.73-1.63,1.63-1.63h9.85c0.9,0,1.63,0.73,1.63,1.63S1114.92,1158.31,1114.02,1158.31z
			 M1094.31,1158.31h-9.85c-0.9,0-1.63-0.73-1.63-1.63s0.73-1.63,1.63-1.63h9.85c0.9,0,1.63,0.73,1.63,1.63
			S1095.21,1158.31,1094.31,1158.31z M1074.61,1158.31h-9.85c-0.9,0-1.63-0.73-1.63-1.63s0.73-1.63,1.63-1.63h9.85
			c0.9,0,1.63,0.73,1.63,1.63S1075.51,1158.31,1074.61,1158.31z M1054.91,1158.31h-9.85c-0.9,0-1.63-0.73-1.63-1.63
			s0.73-1.63,1.63-1.63h9.85c0.9,0,1.63,0.73,1.63,1.63S1055.81,1158.31,1054.91,1158.31z M1035.21,1158.31h-9.85
			c-0.9,0-1.63-0.73-1.63-1.63s0.73-1.63,1.63-1.63h9.85c0.9,0,1.63,0.73,1.63,1.63S1036.11,1158.31,1035.21,1158.31z
			 M1015.5,1158.31h-9.85c-0.9,0-1.63-0.73-1.63-1.63s0.73-1.63,1.63-1.63h9.85c0.9,0,1.63,0.73,1.63,1.63
			S1016.41,1158.31,1015.5,1158.31z M995.8,1158.31h-9.85c-0.9,0-1.63-0.73-1.63-1.63s0.73-1.63,1.63-1.63h9.85
			c0.9,0,1.63,0.73,1.63,1.63S996.7,1158.31,995.8,1158.31z M976.1,1158.31h-9.85c-0.9,0-1.63-0.73-1.63-1.63s0.73-1.63,1.63-1.63
			h9.85c0.9,0,1.63,0.73,1.63,1.63S977,1158.31,976.1,1158.31z M956.4,1158.31h-9.85c-0.9,0-1.63-0.73-1.63-1.63
			s0.73-1.63,1.63-1.63h9.85c0.9,0,1.63,0.73,1.63,1.63S957.3,1158.31,956.4,1158.31z M936.7,1158.31h-9.85
			c-0.9,0-1.63-0.73-1.63-1.63s0.73-1.63,1.63-1.63h9.85c0.9,0,1.63,0.73,1.63,1.63S937.6,1158.31,936.7,1158.31z M916.99,1158.31
			h-8.78c-0.39,0-0.78-0.01-1.17-0.04c-0.9-0.06-1.58-0.83-1.52-1.73c0.06-0.9,0.83-1.6,1.73-1.52c0.32,0.02,0.64,0.03,0.97,0.03
			h8.78c0.9,0,1.63,0.73,1.63,1.63S917.89,1158.31,916.99,1158.31z M1261.27,1155.44c-0.52,0-1.03-0.25-1.35-0.71
			c-0.51-0.75-0.31-1.76,0.43-2.27c2.48-1.69,4.38-4.04,5.5-6.81c0.34-0.83,1.29-1.24,2.12-0.9c0.83,0.34,1.24,1.29,0.9,2.12
			c-1.36,3.37-3.67,6.24-6.69,8.29C1261.91,1155.35,1261.59,1155.44,1261.27,1155.44z M898.06,1154.86c-0.35,0-0.7-0.11-0.99-0.34
			c-2.89-2.23-5.03-5.23-6.18-8.68c-0.29-0.85,0.18-1.78,1.03-2.06c0.85-0.28,1.78,0.18,2.06,1.03c0.95,2.83,2.7,5.3,5.08,7.13
			c0.71,0.55,0.85,1.57,0.3,2.29C899.03,1154.64,898.55,1154.86,898.06,1154.86z M1268.57,1138.2c-0.9,0-1.63-0.73-1.63-1.63v-9.85
			c0-0.9,0.73-1.63,1.63-1.63s1.63,0.73,1.63,1.63v9.85C1270.2,1137.46,1269.47,1138.2,1268.57,1138.2z M891.58,1137.19
			c-0.9,0-1.63-0.73-1.63-1.63v-9.85c0-0.9,0.73-1.63,1.63-1.63s1.63,0.73,1.63,1.63v9.85
			C893.21,1136.46,892.48,1137.19,891.58,1137.19z M1268.57,1118.49c-0.9,0-1.63-0.73-1.63-1.63v-9.85c0-0.9,0.73-1.63,1.63-1.63
			s1.63,0.73,1.63,1.63v9.85C1270.2,1117.76,1269.47,1118.49,1268.57,1118.49z M891.58,1117.49c-0.9,0-1.63-0.73-1.63-1.63v-9.85
			c0-0.9,0.73-1.63,1.63-1.63s1.63,0.73,1.63,1.63v9.85C893.21,1116.76,892.48,1117.49,891.58,1117.49z M1268.57,1098.79
			c-0.9,0-1.63-0.73-1.63-1.63v-9.85c0-0.9,0.73-1.63,1.63-1.63s1.63,0.73,1.63,1.63v9.85
			C1270.2,1098.06,1269.47,1098.79,1268.57,1098.79z M891.58,1097.79c-0.9,0-1.63-0.73-1.63-1.63v-9.85c0-0.9,0.73-1.63,1.63-1.63
			s1.63,0.73,1.63,1.63v9.85C893.21,1097.06,892.48,1097.79,891.58,1097.79z M1268.57,1079.09c-0.9,0-1.63-0.73-1.63-1.63v-9.85
			c0-0.9,0.73-1.63,1.63-1.63s1.63,0.73,1.63,1.63v9.85C1270.2,1078.36,1269.47,1079.09,1268.57,1079.09z M891.58,1078.09
			c-0.9,0-1.63-0.73-1.63-1.63v-9.85c0-0.9,0.73-1.63,1.63-1.63s1.63,0.73,1.63,1.63v9.85
			C893.21,1077.36,892.48,1078.09,891.58,1078.09z M1268.57,1059.39c-0.9,0-1.63-0.73-1.63-1.63v-9.85c0-0.9,0.73-1.63,1.63-1.63
			s1.63,0.73,1.63,1.63v9.85C1270.2,1058.66,1269.47,1059.39,1268.57,1059.39z M891.58,1058.38c-0.9,0-1.63-0.73-1.63-1.63v-9.85
			c0-0.9,0.73-1.63,1.63-1.63s1.63,0.73,1.63,1.63v9.85C893.21,1057.65,892.48,1058.38,891.58,1058.38z M1268.57,1039.68
			c-0.9,0-1.63-0.73-1.63-1.63v-9.85c0-0.9,0.73-1.63,1.63-1.63s1.63,0.73,1.63,1.63v9.85
			C1270.2,1038.95,1269.47,1039.68,1268.57,1039.68z M891.58,1038.68c-0.9,0-1.63-0.73-1.63-1.63v-9.85c0-0.9,0.73-1.63,1.63-1.63
			s1.63,0.73,1.63,1.63v9.85C893.21,1037.95,892.48,1038.68,891.58,1038.68z M1268.57,1019.98c-0.9,0-1.63-0.73-1.63-1.63v-9.85
			c0-0.9,0.73-1.63,1.63-1.63s1.63,0.73,1.63,1.63v9.85C1270.2,1019.25,1269.47,1019.98,1268.57,1019.98z M891.58,1018.98
			c-0.9,0-1.63-0.73-1.63-1.63v-9.85c0-0.9,0.73-1.63,1.63-1.63s1.63,0.73,1.63,1.63v9.85
			C893.21,1018.25,892.48,1018.98,891.58,1018.98z M1268.57,1000.28c-0.9,0-1.63-0.73-1.63-1.63v-9.85c0-0.9,0.73-1.63,1.63-1.63
			s1.63,0.73,1.63,1.63v9.85C1270.2,999.55,1269.47,1000.28,1268.57,1000.28z M891.58,999.28c-0.9,0-1.63-0.73-1.63-1.63v-9.85
			c0-0.9,0.73-1.63,1.63-1.63s1.63,0.73,1.63,1.63v9.85C893.21,998.55,892.48,999.28,891.58,999.28z M1268.57,980.58
			c-0.9,0-1.63-0.73-1.63-1.63v-9.85c0-0.9,0.73-1.63,1.63-1.63s1.63,0.73,1.63,1.63v9.85
			C1270.2,979.85,1269.47,980.58,1268.57,980.58z M891.58,979.57c-0.9,0-1.63-0.73-1.63-1.63v-9.85c0-0.9,0.73-1.63,1.63-1.63
			s1.63,0.73,1.63,1.63v9.85C893.21,978.84,892.48,979.57,891.58,979.57z M1268.57,960.87c-0.9,0-1.63-0.73-1.63-1.63v-4.45
			c0-1.64-0.26-3.25-0.78-4.79c-0.29-0.85,0.17-1.78,1.03-2.07c0.85-0.29,1.78,0.17,2.07,1.03c0.63,1.87,0.95,3.84,0.95,5.83v4.45
			C1270.2,960.14,1269.47,960.87,1268.57,960.87z M891.58,959.87c-0.9,0-1.63-0.73-1.63-1.63v-3.44c0-2.37,0.45-4.68,1.33-6.86
			c0.34-0.83,1.29-1.24,2.12-0.9c0.83,0.34,1.24,1.29,0.9,2.12c-0.73,1.79-1.09,3.69-1.09,5.64v3.44
			C893.21,959.14,892.48,959.87,891.58,959.87z M1262.05,943.22c-0.35,0-0.7-0.11-0.99-0.34c-2.37-1.82-5.21-2.88-8.19-3.07
			c-0.9-0.06-1.58-0.83-1.53-1.73c0.05-0.9,0.84-1.59,1.73-1.53c3.64,0.22,7.09,1.51,9.98,3.74c0.71,0.55,0.85,1.57,0.3,2.29
			C1263.03,943,1262.54,943.22,1262.05,943.22z M898.9,942.64c-0.52,0-1.04-0.25-1.35-0.72c-0.5-0.75-0.31-1.76,0.44-2.26
			c3.01-2.04,6.54-3.12,10.19-3.13c0,0,0,0,0,0c0.9,0,1.63,0.73,1.63,1.63c0,0.9-0.73,1.63-1.63,1.63c-3,0.01-5.89,0.89-8.37,2.57
			C899.54,942.55,899.22,942.64,898.9,942.64z M1243.12,939.79h-9.85c-0.9,0-1.63-0.73-1.63-1.63c0-0.9,0.73-1.63,1.63-1.63h9.85
			c0.9,0,1.63,0.73,1.63,1.63C1244.75,939.06,1244.02,939.79,1243.12,939.79z M1223.42,939.79h-9.85c-0.9,0-1.63-0.73-1.63-1.63
			c0-0.9,0.73-1.63,1.63-1.63h9.85c0.9,0,1.63,0.73,1.63,1.63C1225.05,939.06,1224.32,939.79,1223.42,939.79z M1203.71,939.79h-9.85
			c-0.9,0-1.63-0.73-1.63-1.63c0-0.9,0.73-1.63,1.63-1.63h9.85c0.9,0,1.63,0.73,1.63,1.63
			C1205.34,939.06,1204.61,939.79,1203.71,939.79z M1184.01,939.79h-9.85c-0.9,0-1.63-0.73-1.63-1.63c0-0.9,0.73-1.63,1.63-1.63
			h9.85c0.9,0,1.63,0.73,1.63,1.63C1185.64,939.06,1184.91,939.79,1184.01,939.79z M1164.31,939.79h-9.85
			c-0.9,0-1.63-0.73-1.63-1.63c0-0.9,0.73-1.63,1.63-1.63h9.85c0.9,0,1.63,0.73,1.63,1.63
			C1165.94,939.06,1165.21,939.79,1164.31,939.79z M1144.61,939.79h-9.85c-0.9,0-1.63-0.73-1.63-1.63c0-0.9,0.73-1.63,1.63-1.63
			h9.85c0.9,0,1.63,0.73,1.63,1.63C1146.24,939.06,1145.51,939.79,1144.61,939.79z M1124.9,939.79h-9.85c-0.9,0-1.63-0.73-1.63-1.63
			c0-0.9,0.73-1.63,1.63-1.63h9.85c0.9,0,1.63,0.73,1.63,1.63C1126.53,939.06,1125.8,939.79,1124.9,939.79z M1105.2,939.79h-9.85
			c-0.9,0-1.63-0.73-1.63-1.63c0-0.9,0.73-1.63,1.63-1.63h9.85c0.9,0,1.63,0.73,1.63,1.63
			C1106.83,939.06,1106.1,939.79,1105.2,939.79z M1085.5,939.79h-9.85c-0.9,0-1.63-0.73-1.63-1.63c0-0.9,0.73-1.63,1.63-1.63h9.85
			c0.9,0,1.63,0.73,1.63,1.63C1087.13,939.06,1086.4,939.79,1085.5,939.79z M1065.8,939.79h-9.85c-0.9,0-1.63-0.73-1.63-1.63
			c0-0.9,0.73-1.63,1.63-1.63h9.85c0.9,0,1.63,0.73,1.63,1.63C1067.43,939.06,1066.7,939.79,1065.8,939.79z M1046.09,939.79h-9.85
			c-0.9,0-1.63-0.73-1.63-1.63c0-0.9,0.73-1.63,1.63-1.63h9.85c0.9,0,1.63,0.73,1.63,1.63
			C1047.73,939.06,1047,939.79,1046.09,939.79z M1026.39,939.79h-9.85c-0.9,0-1.63-0.73-1.63-1.63c0-0.9,0.73-1.63,1.63-1.63h9.85
			c0.9,0,1.63,0.73,1.63,1.63C1028.02,939.06,1027.29,939.79,1026.39,939.79z M1006.69,939.79h-9.85c-0.9,0-1.63-0.73-1.63-1.63
			c0-0.9,0.73-1.63,1.63-1.63h9.85c0.9,0,1.63,0.73,1.63,1.63C1008.32,939.06,1007.59,939.79,1006.69,939.79z M986.99,939.79h-9.85
			c-0.9,0-1.63-0.73-1.63-1.63c0-0.9,0.73-1.63,1.63-1.63h9.85c0.9,0,1.63,0.73,1.63,1.63
			C988.62,939.06,987.89,939.79,986.99,939.79z M967.29,939.79h-9.85c-0.9,0-1.63-0.73-1.63-1.63c0-0.9,0.73-1.63,1.63-1.63h9.85
			c0.9,0,1.63,0.73,1.63,1.63C968.92,939.06,968.19,939.79,967.29,939.79z M947.58,939.79h-9.85c-0.9,0-1.63-0.73-1.63-1.63
			c0-0.9,0.73-1.63,1.63-1.63h9.85c0.9,0,1.63,0.73,1.63,1.63C949.21,939.06,948.48,939.79,947.58,939.79z M927.88,939.79h-9.85
			c-0.9,0-1.63-0.73-1.63-1.63c0-0.9,0.73-1.63,1.63-1.63h9.85c0.9,0,1.63,0.73,1.63,1.63
			C929.51,939.06,928.78,939.79,927.88,939.79z"/>
	</g>
	<g>
		<path class="st15" d="M1811.99,1431.71h-8.79c-0.8,0-1.44-0.65-1.44-1.44s0.65-1.44,1.44-1.44h8.73c0.8,0,1.48,0.65,1.48,1.44
			S1812.79,1431.71,1811.99,1431.71z M1794.47,1431.71h-8.73c-0.8,0-1.44-0.65-1.44-1.44s0.65-1.44,1.44-1.44h8.73
			c0.8,0,1.44,0.65,1.44,1.44S1795.27,1431.71,1794.47,1431.71z M1777.02,1431.71h-8.73c-0.8,0-1.44-0.65-1.44-1.44
			s0.65-1.44,1.44-1.44h8.73c0.8,0,1.44,0.65,1.44,1.44S1777.82,1431.71,1777.02,1431.71z M1759.57,1431.71h-8.73
			c-0.8,0-1.44-0.65-1.44-1.44s0.65-1.44,1.44-1.44h8.73c0.8,0,1.44,0.65,1.44,1.44S1760.36,1431.71,1759.57,1431.71z
			 M1742.11,1431.71h-8.73c-0.8,0-1.44-0.65-1.44-1.44s0.65-1.44,1.44-1.44h8.73c0.8,0,1.44,0.65,1.44,1.44
			S1742.91,1431.71,1742.11,1431.71z M1724.66,1431.71h-8.73c-0.8,0-1.44-0.65-1.44-1.44s0.65-1.44,1.44-1.44h8.73
			c0.8,0,1.44,0.65,1.44,1.44S1725.46,1431.71,1724.66,1431.71z M1707.21,1431.71h-8.73c-0.8,0-1.44-0.65-1.44-1.44
			s0.65-1.44,1.44-1.44h8.73c0.8,0,1.44,0.65,1.44,1.44S1708,1431.71,1707.21,1431.71z M1689.75,1431.71h-8.73
			c-0.8,0-1.44-0.65-1.44-1.44s0.65-1.44,1.44-1.44h8.73c0.8,0,1.44,0.65,1.44,1.44S1690.55,1431.71,1689.75,1431.71z
			 M1672.3,1431.71h-8.73c-0.8,0-1.44-0.65-1.44-1.44s0.65-1.44,1.44-1.44h8.73c0.8,0,1.44,0.65,1.44,1.44
			S1673.1,1431.71,1672.3,1431.71z M1654.84,1431.71h-8.43c-0.12,0-0.25,0-0.37-0.01c-0.8-0.04-1.41-0.72-1.37-1.51
			c0.04-0.8,0.69-1.4,1.51-1.37c0.08,0,0.15,0.01,0.23,0.01h8.43c0.8,0,1.44,0.65,1.44,1.44S1655.64,1431.71,1654.84,1431.71z
			 M1817.64,1426.18c-0.02,0-0.03,0-0.05,0c-0.8-0.03-1.42-0.69-1.4-1.49l0-0.14v-8.54c0-0.8,0.65-1.44,1.44-1.44
			s1.44,0.65,1.44,1.44l0,8.77C1819.05,1425.56,1818.41,1426.18,1817.64,1426.18z M1640.71,1425.94c-0.8,0-1.44-0.65-1.44-1.44
			v-8.73c0-0.8,0.65-1.44,1.44-1.44s1.44,0.65,1.44,1.44v8.73C1642.15,1425.3,1641.5,1425.94,1640.71,1425.94z M1817.64,1408.72
			c-0.8,0-1.44-0.65-1.44-1.44v-8.73c0-0.8,0.65-1.44,1.44-1.44s1.44,0.65,1.44,1.44v8.73
			C1819.08,1408.08,1818.44,1408.72,1817.64,1408.72z M1640.71,1408.49c-0.8,0-1.44-0.65-1.44-1.44v-8.73c0-0.8,0.65-1.44,1.44-1.44
			s1.44,0.65,1.44,1.44v8.73C1642.15,1407.84,1641.5,1408.49,1640.71,1408.49z M1817.64,1391.27c-0.8,0-1.44-0.65-1.44-1.44v-8.73
			c0-0.8,0.65-1.44,1.44-1.44s1.44,0.65,1.44,1.44v8.73C1819.08,1390.62,1818.44,1391.27,1817.64,1391.27z M1640.71,1391.04
			c-0.8,0-1.44-0.65-1.44-1.44v-8.51c0-0.09,0-0.18,0-0.28c0.03-0.8,0.67-1.43,1.5-1.38c0.8,0.03,1.42,0.71,1.38,1.5l0,0.16v8.51
			C1642.15,1390.39,1641.5,1391.04,1640.71,1391.04z M1812.19,1376.82c-0.02,0-0.04,0-0.06,0l-0.2,0h-8.46
			c-0.8,0-1.44-0.65-1.44-1.44s0.65-1.44,1.44-1.44h8.46c0.11,0,0.22,0,0.33,0.01c0.8,0.04,1.42,0.71,1.38,1.51
			C1813.6,1376.21,1812.96,1376.82,1812.19,1376.82z M1794.74,1376.81h-8.73c-0.8,0-1.44-0.65-1.44-1.44s0.65-1.44,1.44-1.44h8.73
			c0.8,0,1.44,0.65,1.44,1.44S1795.54,1376.81,1794.74,1376.81z M1777.29,1376.81h-8.73c-0.8,0-1.44-0.65-1.44-1.44
			s0.65-1.44,1.44-1.44h8.73c0.8,0,1.44,0.65,1.44,1.44S1778.08,1376.81,1777.29,1376.81z M1759.83,1376.81h-8.73
			c-0.8,0-1.44-0.65-1.44-1.44s0.65-1.44,1.44-1.44h8.73c0.8,0,1.44,0.65,1.44,1.44S1760.63,1376.81,1759.83,1376.81z
			 M1742.38,1376.81h-8.73c-0.8,0-1.44-0.65-1.44-1.44s0.65-1.44,1.44-1.44h8.73c0.8,0,1.44,0.65,1.44,1.44
			S1743.18,1376.81,1742.38,1376.81z M1724.92,1376.81h-8.73c-0.8,0-1.44-0.65-1.44-1.44s0.65-1.44,1.44-1.44h8.73
			c0.8,0,1.44,0.65,1.44,1.44S1725.72,1376.81,1724.92,1376.81z M1707.47,1376.81h-8.73c-0.8,0-1.44-0.65-1.44-1.44
			s0.65-1.44,1.44-1.44h8.73c0.8,0,1.44,0.65,1.44,1.44S1708.27,1376.81,1707.47,1376.81z M1690.02,1376.81h-8.73
			c-0.8,0-1.44-0.65-1.44-1.44s0.65-1.44,1.44-1.44h8.73c0.8,0,1.44,0.65,1.44,1.44S1690.82,1376.81,1690.02,1376.81z
			 M1672.56,1376.81h-8.73c-0.8,0-1.44-0.65-1.44-1.44s0.65-1.44,1.44-1.44h8.73c0.8,0,1.44,0.65,1.44,1.44
			S1673.36,1376.81,1672.56,1376.81z M1655.11,1376.81h-8.69c-0.8,0-1.46-0.65-1.46-1.44s0.63-1.44,1.43-1.44h8.73
			c0.8,0,1.44,0.65,1.44,1.44S1655.91,1376.81,1655.11,1376.81z"/>
	</g>
	<g>
		<path class="st15" d="M1123.3,1451.57h-8.71c-0.8,0-1.44-0.65-1.44-1.44s0.65-1.44,1.44-1.44h8.65c0.8,0,1.47,0.65,1.47,1.44
			S1124.1,1451.57,1123.3,1451.57z M1105.94,1451.57h-8.65c-0.8,0-1.44-0.65-1.44-1.44s0.65-1.44,1.44-1.44h8.65
			c0.8,0,1.44,0.65,1.44,1.44S1106.74,1451.57,1105.94,1451.57z M1088.64,1451.57h-8.65c-0.8,0-1.44-0.65-1.44-1.44
			s0.65-1.44,1.44-1.44h8.65c0.8,0,1.44,0.65,1.44,1.44S1089.43,1451.57,1088.64,1451.57z M1071.33,1451.57h-8.65
			c-0.8,0-1.44-0.65-1.44-1.44s0.65-1.44,1.44-1.44h8.65c0.8,0,1.44,0.65,1.44,1.44S1072.13,1451.57,1071.33,1451.57z
			 M1054.03,1451.57h-8.65c-0.8,0-1.44-0.65-1.44-1.44s0.65-1.44,1.44-1.44h8.65c0.8,0,1.44,0.65,1.44,1.44
			S1054.83,1451.57,1054.03,1451.57z M1036.73,1451.57h-8.65c-0.8,0-1.44-0.65-1.44-1.44s0.65-1.44,1.44-1.44h8.65
			c0.8,0,1.44,0.65,1.44,1.44S1037.52,1451.57,1036.73,1451.57z M1019.42,1451.57h-8.65c-0.8,0-1.44-0.65-1.44-1.44
			s0.65-1.44,1.44-1.44h8.65c0.8,0,1.44,0.65,1.44,1.44S1020.22,1451.57,1019.42,1451.57z M1002.12,1451.57h-8.65
			c-0.8,0-1.44-0.65-1.44-1.44s0.65-1.44,1.44-1.44h8.65c0.8,0,1.44,0.65,1.44,1.44S1002.92,1451.57,1002.12,1451.57z
			 M984.82,1451.57h-8.65c-0.8,0-1.44-0.65-1.44-1.44s0.65-1.44,1.44-1.44h8.65c0.8,0,1.44,0.65,1.44,1.44
			S985.62,1451.57,984.82,1451.57z M967.52,1451.57h-8.65c-0.8,0-1.44-0.65-1.44-1.44s0.65-1.44,1.44-1.44h8.65
			c0.8,0,1.44,0.65,1.44,1.44S968.31,1451.57,967.52,1451.57z M950.21,1451.57h-8.65c-0.8,0-1.44-0.65-1.44-1.44
			s0.65-1.44,1.44-1.44h8.65c0.8,0,1.44,0.65,1.44,1.44S951.01,1451.57,950.21,1451.57z M932.91,1451.57h-8.65
			c-0.8,0-1.44-0.65-1.44-1.44s0.65-1.44,1.44-1.44h8.65c0.8,0,1.44,0.65,1.44,1.44S933.71,1451.57,932.91,1451.57z M915.61,1451.57
			h-8.65c-0.8,0-1.44-0.65-1.44-1.44s0.65-1.44,1.44-1.44h8.65c0.8,0,1.44,0.65,1.44,1.44S916.4,1451.57,915.61,1451.57z
			 M898.3,1451.57h-8.65c-0.8,0-1.44-0.65-1.44-1.44s0.65-1.44,1.44-1.44h8.65c0.8,0,1.44,0.65,1.44,1.44
			S899.1,1451.57,898.3,1451.57z M881,1451.57h-8.65c-0.8,0-1.44-0.65-1.44-1.44s0.65-1.44,1.44-1.44H881c0.8,0,1.44,0.65,1.44,1.44
			S881.8,1451.57,881,1451.57z M863.7,1451.57h-6.91c-0.64,0-1.28-0.04-1.91-0.11c-0.79-0.09-1.36-0.81-1.27-1.6
			c0.09-0.79,0.81-1.36,1.6-1.27c0.51,0.06,1.04,0.09,1.57,0.09h6.91c0.8,0,1.44,0.65,1.44,1.44S864.5,1451.57,863.7,1451.57z
			 M1131.45,1449.08c-0.47,0-0.92-0.22-1.2-0.64c-0.44-0.66-0.27-1.56,0.39-2c2.19-1.47,3.87-3.52,4.88-5.95
			c0.31-0.74,1.15-1.08,1.89-0.78c0.74,0.31,1.09,1.15,0.78,1.89c-1.23,2.95-3.28,5.45-5.94,7.24
			C1132.01,1449,1131.73,1449.08,1131.45,1449.08z M847.24,1448.06c-0.33,0-0.66-0.11-0.94-0.34c-2.44-2.08-4.2-4.8-5.07-7.87
			c-0.22-0.77,0.22-1.57,0.99-1.79c0.77-0.22,1.57,0.22,1.79,0.99c0.72,2.52,2.16,4.75,4.17,6.46c0.61,0.52,0.68,1.43,0.16,2.04
			C848.05,1447.88,847.65,1448.06,847.24,1448.06z M1137.98,1433.98c-0.8,0-1.44-0.65-1.44-1.44v-8.65c0-0.8,0.65-1.44,1.44-1.44
			s1.44,0.65,1.44,1.44v8.65C1139.43,1433.33,1138.78,1433.98,1137.98,1433.98z M842.05,1432.29c-0.8,0-1.44-0.65-1.44-1.44v-8.65
			c0-0.8,0.65-1.44,1.44-1.44c0.8,0,1.44,0.65,1.44,1.44v8.65C843.5,1431.65,842.85,1432.29,842.05,1432.29z M1137.98,1416.68
			c-0.8,0-1.44-0.65-1.44-1.44v-8.65c0-0.8,0.65-1.44,1.44-1.44s1.44,0.65,1.44,1.44v8.65
			C1139.43,1416.03,1138.78,1416.68,1137.98,1416.68z M842.05,1414.99c-0.8,0-1.44-0.65-1.44-1.44v-8.65c0-0.8,0.65-1.44,1.44-1.44
			c0.8,0,1.44,0.65,1.44,1.44v8.65C843.5,1414.34,842.85,1414.99,842.05,1414.99z M1137.98,1399.37c-0.8,0-1.44-0.65-1.44-1.44
			v-8.65c0-0.8,0.65-1.44,1.44-1.44s1.44,0.65,1.44,1.44v8.65C1139.43,1398.73,1138.78,1399.37,1137.98,1399.37z M842.05,1397.69
			c-0.8,0-1.44-0.65-1.44-1.44v-8.65c0-0.8,0.65-1.44,1.44-1.44c0.8,0,1.44,0.65,1.44,1.44v8.65
			C843.5,1397.04,842.85,1397.69,842.05,1397.69z M1137.98,1382.07c-0.8,0-1.44-0.65-1.44-1.44v-8.65c0-0.8,0.65-1.44,1.44-1.44
			s1.44,0.65,1.44,1.44v8.65C1139.43,1381.42,1138.78,1382.07,1137.98,1382.07z M842.05,1380.38c-0.8,0-1.44-0.65-1.44-1.44v-8.65
			c0-0.8,0.65-1.44,1.44-1.44c0.8,0,1.44,0.65,1.44,1.44v8.65C843.5,1379.74,842.85,1380.38,842.05,1380.38z M1137.98,1364.77
			c-0.8,0-1.44-0.65-1.44-1.44v-8.65c0-0.8,0.65-1.44,1.44-1.44s1.44,0.65,1.44,1.44v8.65
			C1139.43,1364.12,1138.78,1364.77,1137.98,1364.77z M842.05,1363.08c-0.8,0-1.44-0.65-1.44-1.44v-8.65c0-0.8,0.65-1.44,1.44-1.44
			c0.8,0,1.44,0.65,1.44,1.44v8.65C843.5,1362.44,842.85,1363.08,842.05,1363.08z M1137.98,1347.46c-0.8,0-1.44-0.65-1.44-1.44
			v-8.65c0-0.8,0.65-1.44,1.44-1.44s1.44,0.65,1.44,1.44v8.65C1139.43,1346.82,1138.78,1347.46,1137.98,1347.46z M842.05,1345.78
			c-0.8,0-1.44-0.65-1.44-1.44v-8.65c0-0.8,0.65-1.44,1.44-1.44c0.8,0,1.44,0.65,1.44,1.44v8.65
			C843.5,1345.13,842.85,1345.78,842.05,1345.78z M1137.98,1330.16c-0.8,0-1.44-0.65-1.44-1.44v-8.65c0-0.8,0.65-1.44,1.44-1.44
			s1.44,0.65,1.44,1.44v8.65C1139.43,1329.52,1138.78,1330.16,1137.98,1330.16z M842.05,1328.48c-0.8,0-1.44-0.65-1.44-1.44v-8.65
			c0-0.8,0.65-1.44,1.44-1.44c0.8,0,1.44,0.65,1.44,1.44v8.65C843.5,1327.83,842.85,1328.48,842.05,1328.48z M1137.98,1312.86
			c-0.8,0-1.44-0.65-1.44-1.44v-8.65c0-0.8,0.65-1.44,1.44-1.44s1.44,0.65,1.44,1.44v8.65
			C1139.43,1312.21,1138.78,1312.86,1137.98,1312.86z M842.05,1311.17c-0.8,0-1.44-0.65-1.44-1.44v-8.65c0-0.8,0.65-1.44,1.44-1.44
			c0.8,0,1.44,0.65,1.44,1.44v8.65C843.5,1310.53,842.85,1311.17,842.05,1311.17z M1137.98,1295.56c-0.8,0-1.44-0.65-1.44-1.44
			v-8.65c0-0.8,0.65-1.44,1.44-1.44s1.44,0.65,1.44,1.44v8.65C1139.43,1294.91,1138.78,1295.56,1137.98,1295.56z M842.05,1293.87
			c-0.8,0-1.44-0.65-1.44-1.44v-8.65c0-0.8,0.65-1.44,1.44-1.44c0.8,0,1.44,0.65,1.44,1.44v8.65
			C843.5,1293.22,842.85,1293.87,842.05,1293.87z M1137.98,1278.25c-0.8,0-1.44-0.65-1.44-1.44v-8.65c0-0.8,0.65-1.44,1.44-1.44
			s1.44,0.65,1.44,1.44v8.65C1139.43,1277.61,1138.78,1278.25,1137.98,1278.25z M842.05,1276.57c-0.8,0-1.44-0.65-1.44-1.44v-8.65
			c0-0.8,0.65-1.44,1.44-1.44c0.8,0,1.44,0.65,1.44,1.44v8.65C843.5,1275.92,842.85,1276.57,842.05,1276.57z M1137.98,1260.95
			c-0.8,0-1.44-0.65-1.44-1.44v-8.65c0-0.8,0.65-1.44,1.44-1.44s1.44,0.65,1.44,1.44v8.65
			C1139.43,1260.3,1138.78,1260.95,1137.98,1260.95z M842.05,1259.26c-0.8,0-1.44-0.65-1.44-1.44v-8.65c0-0.8,0.65-1.44,1.44-1.44
			c0.8,0,1.44,0.65,1.44,1.44v8.65C843.5,1258.62,842.85,1259.26,842.05,1259.26z M1137.41,1243.7c-0.63,0-1.21-0.41-1.39-1.04
			c-0.73-2.52-2.17-4.75-4.18-6.45c-0.61-0.52-0.68-1.43-0.17-2.04c0.52-0.61,1.43-0.68,2.04-0.17c2.45,2.07,4.21,4.79,5.09,7.86
			c0.22,0.77-0.22,1.57-0.99,1.79C1137.67,1243.68,1137.54,1243.7,1137.41,1243.7z M843.19,1242.11c-0.19,0-0.37-0.04-0.56-0.11
			c-0.74-0.31-1.08-1.15-0.78-1.89c1.23-2.95,3.29-5.45,5.95-7.23c0.66-0.44,1.56-0.27,2,0.4c0.44,0.66,0.27,1.56-0.4,2
			c-2.19,1.46-3.88,3.52-4.89,5.94C844.29,1241.78,843.75,1242.11,843.19,1242.11z M1124.95,1233.15c-0.06,0-0.11,0-0.17-0.01
			c-0.51-0.06-1.03-0.09-1.55-0.09h-6.94c-0.8,0-1.44-0.65-1.44-1.44s0.65-1.44,1.44-1.44h6.94c0.63,0,1.26,0.04,1.88,0.11
			c0.79,0.09,1.36,0.81,1.27,1.6C1126.3,1232.61,1125.68,1233.15,1124.95,1233.15z M1107.65,1233.05H1099
			c-0.8,0-1.44-0.65-1.44-1.44s0.65-1.44,1.44-1.44h8.65c0.8,0,1.44,0.65,1.44,1.44S1108.45,1233.05,1107.65,1233.05z
			 M1090.35,1233.05h-8.65c-0.8,0-1.44-0.65-1.44-1.44s0.65-1.44,1.44-1.44h8.65c0.8,0,1.44,0.65,1.44,1.44
			S1091.15,1233.05,1090.35,1233.05z M1073.05,1233.05h-8.65c-0.8,0-1.44-0.65-1.44-1.44s0.65-1.44,1.44-1.44h8.65
			c0.8,0,1.44,0.65,1.44,1.44S1073.85,1233.05,1073.05,1233.05z M1055.75,1233.05h-8.65c-0.8,0-1.44-0.65-1.44-1.44
			s0.65-1.44,1.44-1.44h8.65c0.8,0,1.44,0.65,1.44,1.44S1056.54,1233.05,1055.75,1233.05z M1038.44,1233.05h-8.65
			c-0.8,0-1.44-0.65-1.44-1.44s0.65-1.44,1.44-1.44h8.65c0.8,0,1.44,0.65,1.44,1.44S1039.24,1233.05,1038.44,1233.05z
			 M1021.14,1233.05h-8.65c-0.8,0-1.44-0.65-1.44-1.44s0.65-1.44,1.44-1.44h8.65c0.8,0,1.44,0.65,1.44,1.44
			S1021.94,1233.05,1021.14,1233.05z M1003.84,1233.05h-8.65c-0.8,0-1.44-0.65-1.44-1.44s0.65-1.44,1.44-1.44h8.65
			c0.8,0,1.44,0.65,1.44,1.44S1004.63,1233.05,1003.84,1233.05z M986.53,1233.05h-8.65c-0.8,0-1.44-0.65-1.44-1.44
			s0.65-1.44,1.44-1.44h8.65c0.8,0,1.44,0.65,1.44,1.44S987.33,1233.05,986.53,1233.05z M969.23,1233.05h-8.65
			c-0.8,0-1.44-0.65-1.44-1.44s0.65-1.44,1.44-1.44h8.65c0.8,0,1.44,0.65,1.44,1.44S970.03,1233.05,969.23,1233.05z M951.93,1233.05
			h-8.65c-0.8,0-1.44-0.65-1.44-1.44s0.65-1.44,1.44-1.44h8.65c0.8,0,1.44,0.65,1.44,1.44S952.73,1233.05,951.93,1233.05z
			 M934.63,1233.05h-8.65c-0.8,0-1.44-0.65-1.44-1.44s0.65-1.44,1.44-1.44h8.65c0.8,0,1.44,0.65,1.44,1.44
			S935.42,1233.05,934.63,1233.05z M917.32,1233.05h-8.65c-0.8,0-1.44-0.65-1.44-1.44s0.65-1.44,1.44-1.44h8.65
			c0.8,0,1.44,0.65,1.44,1.44S918.12,1233.05,917.32,1233.05z M900.02,1233.05h-8.65c-0.8,0-1.44-0.65-1.44-1.44
			s0.65-1.44,1.44-1.44h8.65c0.8,0,1.44,0.65,1.44,1.44S900.82,1233.05,900.02,1233.05z M882.72,1233.05h-8.65
			c-0.8,0-1.44-0.65-1.44-1.44s0.65-1.44,1.44-1.44h8.65c0.8,0,1.44,0.65,1.44,1.44S883.51,1233.05,882.72,1233.05z M865.41,1233.05
			h-8.62c-0.8,0-1.46-0.65-1.46-1.44s0.63-1.44,1.43-1.44h8.65c0.8,0,1.44,0.65,1.44,1.44S866.21,1233.05,865.41,1233.05z"/>
	</g>
	<rect x="1196.62" y="1231.61" class="st16" width="195.04" height="291.15"/>
	<g>
		<g>
			<g>
				<path class="st7" d="M1312.86,1325.15h-2.67v-12c0-4.3,3.5-7.8,7.8-7.8h33c2.33,0,4.37-1.58,4.97-3.83l5.22-19.84
					c0.41-1.55,0.08-3.17-0.9-4.44c-0.98-1.27-2.46-2-4.07-2h-43.06v-2.67h43.06c2.44,0,4.69,1.11,6.18,3.04
					c1.49,1.93,1.99,4.39,1.37,6.75l-5.22,19.84c-0.9,3.42-4,5.82-7.55,5.82h-33c-2.83,0-5.13,2.3-5.13,5.13V1325.15z"/>
			</g>
			<path class="st2" d="M1343.88,1285.16h-56.71c-4.79,0-8.66-3.88-8.66-8.67v-5.18c0-4.79,3.88-8.67,8.66-8.67h56.71
				c4.79,0,8.66,3.88,8.66,8.67v5.18C1352.55,1281.28,1348.67,1285.16,1343.88,1285.16z"/>
			<path class="st7" d="M1311.53,1374.95L1311.53,1374.95c-4.05,0-7.34-3.28-7.34-7.34v-44.47c0-4.05,3.29-7.34,7.34-7.34l0,0
				c4.05,0,7.34,3.29,7.34,7.34v44.47C1318.87,1371.67,1315.58,1374.95,1311.53,1374.95z"/>
		</g>
		<g>
			<path class="st3" d="M1592.3,1471.37c0,0,5.05,15.55,4.61,19.1c-0.43,3.56-3.6,15.7-5.87,18.81c-2.26,3.11-3.38-12.66-5.17-15.04
				c-1.79-2.37-0.37,5.94-1.63,6.71c-1.26,0.77-3.9-6.12-5.03-8.54c-1.13-2.43,2.77-11.38,2.78-17.63
				C1582.01,1468.54,1592.3,1471.37,1592.3,1471.37z"/>
			<path class="st9" d="M1473.59,1347.88c-1.4-17.83,17.96-30.05,33.25-20.78c0.31,0.19,0.62,0.38,0.93,0.58
				c22.89,14.73,72.28,83.49,75.68,90.37c3.4,6.89,13.43,61.68,13.43,61.68s-12.4,4.54-18.2-0.17c0,0-20.11-51.96-23.08-54.56
				c-2.97-2.6-80.43-46.06-81.09-62.35C1474.35,1358.35,1474,1353.17,1473.59,1347.88z"/>
		</g>
		<g class="st1">
			<path class="st17" d="M1611.8,1750.3c0,0,9.23,8.42,7.43,14.41c-1.8,5.98-10.13,9.97-11.25,17.29c-1.13,7.31-5.63,11.3-9.68,11.3
				s-19.32,0-19.32,0s-2.98-5.15,4.22-6.7c7.2-1.55,9.92-10.15,9.47-18.13s0.68-18.62,0.68-18.62l15.31-3.55L1611.8,1750.3z"/>
			<path class="st17" d="M1498.58,1772.08c0,0,1.66,19.17-2.4,21.16l-51.86-0.11c0,0,0-5.99,8.33-7.31
				c8.33-1.33,22.96-6.21,25.44-17.07C1480.57,1757.9,1498.58,1772.08,1498.58,1772.08z"/>
			<path class="st17" d="M1454.79,1501.31c0,0,2.74,33.6,5.95,73.99c4.37,54.87,9.62,122.26,10.14,135.03
				c0.9,22.17,4.5,57.63,4.5,57.63s8.55,8.42,25.66,4.87c0,0,15.25-50.62,19.6-104.19c0.07-0.88,0.14-1.76,0.2-2.65
				c4.05-54.53,10.35-169.34,10.35-169.34L1454.79,1501.31z"/>
			<path class="st17" d="M1454.79,1501.31c0,0,2.74,33.6,5.95,73.99l59.91,93.35c0.07-0.88,0.14-1.76,0.2-2.65
				c4.05-54.53,10.35-169.34,10.35-169.34L1454.79,1501.31z"/>
			<path class="st17" d="M1467.29,1505.3c0,0,49.3,121.69,81.71,178.87c32.42,57.19,42.55,73.14,42.55,73.14s18.57-7.31,20.26-12.3
				c0,0-12.4-110.4-34.1-137.31c-12.27-15.21-26.67-60.84-27.35-76.8c-0.67-15.96-4.39-47.54-4.39-47.54L1467.29,1505.3z"/>
		</g>
		<path class="st3" d="M1509.79,1322.76c0,0-33.03,16.75-52.38,11.16c0,0,4.61-6.06,12.81-10.67c-0.74-3.85-1.33-7.18-1.68-10.02
			c-0.94-6.54-1.02-10.25-1.02-10.25l12.67-10.38l12.01-9.93C1491.79,1309.94,1509.79,1322.76,1509.79,1322.76z"/>
		<path class="st9" d="M1542.6,1492.99c-13.33,8.07-25.96,14.14-40.74,17.55c-17.43,4.13-38.85,2.91-46.01,4
			c-0.74,0.1-1.43-0.09-2.09-0.53c-0.56-0.29-3.72-21.55-6.89-48.38c-0.14-1.08-0.29-2.17-0.35-3.26l-0.05-0.36
			c-1.23-10.49-2.31-21.51-3.25-32.55c-0.76-8.59-1.39-17.09-1.83-25.08c-0.55-9.99-0.78-19.16-0.55-26.71
			c0.1-3.45,0.3-6.55,0.61-9.24c1.89-15.67,9.36-26.87,16.4-35.21l5.84-6.64c6.77,0.43,13.68-0.85,20.21-5.16
			c7.13-4.7,14.83-9.75,16.28-8.9c10.93,5.98,19.83,21.48,26.19,41.95c3.64,11.78,6.44,25.15,8.23,39.31
			c0.58,4.39,1.06,8.9,1.44,13.39c0.07,0.83,0.13,1.66,0.2,2.48c0.86,12.27,2.26,23.77,3.81,34.04c2.09,13.85,4.47,25.45,6.15,33.62
			c0.84,4.16,1.49,7.37,1.87,9.68C1548.42,1488.99,1544.4,1491.87,1542.6,1492.99z"/>
		<path class="st18" d="M1492.63,1293.09c0,0-8.12,15.53-24.09,20.14c-0.94-6.54-1.02-10.25-1.02-10.25l12.67-10.38L1492.63,1293.09
			z"/>
		<path class="st3" d="M1461.66,1302.66c0,0,31.92,4.57,34.52-15.04s8.47-32.24-11.8-35.99s-25.23,3.23-27.71,9.57
			S1453.42,1300.96,1461.66,1302.66z"/>
		<path class="st5" d="M1506.97,1248.84c0.28-0.34,0.94-0.62,2.42-0.73c0,0-1.2-0.72-2.78-0.72c-0.35-2.06-1.52-5.68-5.09-6.5
			c0,0,1.93,0.98,2.22,3.17c-4.19-4.14-13.06-7.04-37.4-4.63c-32.08,3.17-21.08,23.54-16.88,25.91c4.21,2.37,14.55-4.56,22.31-4.1
			s9.46,11.63,12.12,13.12c2.66,1.49,1.57-1.21,5.1-2.89c3.53-1.68,3.98,4.21,3.03,8.06c-0.95,3.85,4.04,8.81,4.04,8.81
			s0,0,4.83-5.42c4.83-5.42,9.04-28.04,6.7-32.8C1507.39,1249.69,1507.18,1249.26,1506.97,1248.84z"/>
		<path class="st9" d="M1496.84,1379.42c0,0-26.91,20.48-55.44,24.96c-0.55-9.99-0.78-19.16-0.55-26.71L1496.84,1379.42z"/>
		<g>
			<path class="st3" d="M1331.57,1353c-0.42-0.46-5.91-18.8-15.4-17.46c-6.19,0.87-16.31,4.46-13.62,12.61
				c1.06,3.21,19.92,14.25,19.92,14.25L1331.57,1353z"/>
			<path class="st9" d="M1500.16,1339.85c15.34,9.18,14.1,32.04-2.31,39.14c-0.34,0.15-0.67,0.29-1.01,0.42
				c-25.27,10.14-109.92,10.61-117.5,9.39c-7.58-1.22-58.07-24.75-58.07-24.75s3.48-12.74,10.67-14.74c0,0,54.01,13.69,57.85,12.77
				c3.84-0.92,84.12-38.92,97.78-30.02C1491.19,1334.42,1495.61,1337.13,1500.16,1339.85z"/>
		</g>
	</g>
	<path class="st12" d="M1805.76,1264.23h-160.42c-3.76,0-6.83-3.07-6.83-6.83l0,0c0-3.76,3.07-6.83,6.83-6.83h160.42
		c3.76,0,6.83,3.07,6.83,6.83l0,0C1812.59,1261.16,1809.52,1264.23,1805.76,1264.23z"/>
	<path class="st12" d="M1021.57,795.52H861.15c-3.76,0-6.83-3.07-6.83-6.83l0,0c0-3.76,3.07-6.83,6.83-6.83h160.42
		c3.76,0,6.83,3.07,6.83,6.83l0,0C1028.4,792.45,1025.33,795.52,1021.57,795.52z"/>
	<path class="st12" d="M1805.76,1331.98h-160.42c-3.76,0-6.83-3.07-6.83-6.83l0,0c0-3.76,3.07-6.83,6.83-6.83h160.42
		c3.76,0,6.83,3.07,6.83,6.83l0,0C1812.59,1328.9,1809.52,1331.98,1805.76,1331.98z"/>
	<path class="st12" d="M1805.76,1298.1h-191.87c-3.76,0-6.83-3.07-6.83-6.83l0,0c0-3.76,3.07-6.83,6.83-6.83h191.87
		c3.76,0,6.83,3.07,6.83,6.83l0,0C1812.59,1295.03,1809.52,1298.1,1805.76,1298.1z"/>
	<g>
		<path class="st12" d="M973.95,838.46h-90.52c-2.86,0-5.2-2.34-5.2-5.2V830c0-2.86,2.34-5.2,5.2-5.2h90.52c2.86,0,5.2,2.34,5.2,5.2
			v3.26C979.15,836.12,976.81,838.46,973.95,838.46z"/>
		<path class="st12" d="M848.26,831.63c0-3.77,3.06-6.83,6.83-6.83c3.77,0,6.83,3.06,6.83,6.83c0,3.77-3.06,6.83-6.83,6.83
			C851.31,838.46,848.26,835.41,848.26,831.63z"/>
	</g>
	<g>
		<path class="st12" d="M991.13,865.64H883.87c-3.1,0-5.63-2.54-5.63-5.63v-2.39c0-3.1,2.54-5.63,5.63-5.63h107.27
			c3.1,0,5.64,2.54,5.64,5.63v2.39C996.77,863.1,994.23,865.64,991.13,865.64z"/>
		<path class="st12" d="M848.26,858.81c0-3.77,3.06-6.83,6.83-6.83c3.77,0,6.83,3.06,6.83,6.83c0,3.77-3.06,6.83-6.83,6.83
			C851.31,865.64,848.26,862.58,848.26,858.81z"/>
	</g>
	<g>
		<path class="st12" d="M973.95,895.14h-90.52c-2.86,0-5.2-2.34-5.2-5.2v-3.26c0-2.86,2.34-5.2,5.2-5.2h90.52
			c2.86,0,5.2,2.34,5.2,5.2v3.26C979.15,892.8,976.81,895.14,973.95,895.14z"/>
		<path class="st12" d="M848.26,888.31c0-3.77,3.06-6.83,6.83-6.83c3.77,0,6.83,3.06,6.83,6.83c0,3.77-3.06,6.83-6.83,6.83
			C851.31,895.14,848.26,892.08,848.26,888.31z"/>
	</g>
	<g class="st1">
		<path class="st19" d="M2015.58,1793.75L2015.58,1793.75c-3.07,0.02-6.3-2.2-7.2-4.96l-185.11-563.61
			c-0.91-2.76,0.85-5.01,3.92-5.03l0,0c3.07-0.02,6.3,2.2,7.2,4.96l185.11,563.61C2020.41,1791.48,2018.65,1793.73,2015.58,1793.75z
			"/>
		<path class="st19" d="M2164.76,1792.89L2164.76,1792.89c-3.07,0.02-6.3-2.2-7.2-4.96l-185.11-563.61
			c-0.91-2.76,0.85-5.01,3.92-5.03l0,0c3.07-0.02,6.3,2.2,7.2,4.96l185.11,563.61C2169.59,1790.62,2167.84,1792.87,2164.76,1792.89z
			"/>
		<path class="st19" d="M2004.13,1302.85l-149.81,0.87c-2.89,0.02-5.95-2.09-6.8-4.68l0,0c-0.85-2.59,0.82-4.73,3.7-4.74
			l149.81-0.87c2.89-0.02,5.95,2.09,6.8,4.68l0,0C2008.69,1300.7,2007.02,1302.83,2004.13,1302.85z"/>
		<path class="st19" d="M2036.45,1401.25l-149.81,0.87c-2.89,0.02-5.95-2.09-6.8-4.68l0,0c-0.85-2.59,0.81-4.73,3.7-4.75
			l149.81-0.87c2.89-0.02,5.95,2.09,6.8,4.68l0,0C2041.01,1399.1,2039.34,1401.24,2036.45,1401.25z"/>
		<path class="st19" d="M2067.58,1496.03l-149.81,0.87c-2.89,0.02-5.95-2.09-6.8-4.68l0,0c-0.85-2.59,0.82-4.73,3.7-4.74
			l149.81-0.87c2.89-0.02,5.95,2.09,6.8,4.68l0,0C2072.13,1493.88,2070.47,1496.01,2067.58,1496.03z"/>
		<path class="st19" d="M2102.62,1602.73l-149.81,0.87c-2.89,0.02-5.95-2.09-6.8-4.68l0,0c-0.85-2.59,0.81-4.73,3.7-4.75
			l149.81-0.87c2.89-0.02,5.95,2.09,6.8,4.68l0,0C2107.18,1600.57,2105.51,1602.71,2102.62,1602.73z"/>
		<path class="st19" d="M2139.3,1714.4l-149.81,0.87c-2.89,0.02-5.95-2.09-6.8-4.68l0,0c-0.85-2.59,0.82-4.73,3.7-4.74l149.81-0.87
			c2.89-0.02,5.95,2.09,6.8,4.68l0,0C2143.85,1712.25,2142.19,1714.38,2139.3,1714.4z"/>
	</g>
	<g>
		<path class="st11" d="M1816.81,967.04L1816.81,967.04c-1.17,0.23-2.32-0.55-2.55-1.72l-2.4-12.38c-0.23-1.17,0.55-2.32,1.72-2.55
			l0,0c1.17-0.23,2.32,0.55,2.55,1.72l2.4,12.38C1818.75,965.67,1817.98,966.82,1816.81,967.04z"/>
		
			<rect x="1810.52" y="929.34" transform="matrix(0.9818 -0.19 0.19 0.9818 -145.3286 361.2924)" class="st11" width="1.5" height="18.23"/>
		<path class="st3" d="M1810.28,828.61c0,0-1.42-12.33-4.4-17.04c-2.99-4.71-14.28-7.74-15-7.05c-2.21,2.14,6.53,9.71,6.87,12.5
			c0.34,2.79-4.44,0.86-2.14,6.3c1.94,4.59,8.33,10.55,8.33,10.55L1810.28,828.61z"/>
		<path class="st9" d="M1804.83,827.24c4.12-3.23,4.99-3.17,4.99-3.17s38.09,33,41.8,35.94c3.71,2.94,60.92,19.53,60.92,19.53
			l9.09,46.51c0,0-77.42-37.39-86.67-45.02c-15.29-12.61-34.57-47.9-34.57-47.9S1801.6,829.78,1804.83,827.24z"/>
		<path class="st20" d="M1913.78,1274.23c0,0-0.66,15.9-3.71,19.76l-42.46,0.25c0.3-1.64,0.47-5.43,6.35-6.46
			c7.42-1.29,16.13-6.47,20.62-16.27C1899.31,1261.19,1913.78,1274.23,1913.78,1274.23z"/>
		<path class="st20" d="M1997.11,1271.94c0,0,2.96,21.12-1.06,21.49c-0.53,0.05-17.11,0.32-24.29,0.44
			c-8.44,0.14-22.31-0.16-22.31-0.16c-1.74,0.07-2.89-1.82-2-3.32c0.97-1.65,2.83-3.41,6.38-4.09c7.39-1.42,19.72-6.86,24.04-16.74
			C1982.41,1259.16,1997.11,1271.94,1997.11,1271.94z"/>
		<path class="st6" d="M1891.7,1055.53c0,0,11.81,41.31,45.65,113.06c33.84,71.74,35.3,106.32,35.3,106.32s5.12,1.81,11.92,1.09
			c7.35-0.78,12.54-4.06,12.54-4.06s-2.19-85.4-18.18-121.6c-15.98-36.21-19.24-135.28-19.24-135.28L1891.7,1055.53z"/>
		<path class="st6" d="M1872.74,1019.99c0,0-0.94,63.97,10.13,142.52c11.07,78.55,5.89,115.08,5.89,115.08s2.93,2.14,11.96,2.1
			c10.56-0.04,15.98-4.41,15.98-4.41s15.84-78.58,11.3-117.89s21.69-134.91,21.69-134.91L1872.74,1019.99z"/>
		<path class="st3" d="M1925.05,870.28l-12.5,9.26l-18.07-3.8c0.25-1.65,1.44-8.48,2.53-14.66c0.07-0.36,0.13-0.73,0.19-1.09
			c0.93-5.26,1.73-9.79,1.73-9.79l16.88-8.41l6.29-3.14c-0.02,0.11-0.49,5.84-0.55,6.68
			C1920.37,860.19,1925.05,870.28,1925.05,870.28z"/>
		<path class="st9" d="M1960.87,1027.89c-4.09,18.7-91.59,10.49-90.45-0.92c0.04-0.38,0.27-5.66,0.59-12.78
			c0.66-15.4,1.67-39.47,1.8-41.35c0-0.03,0.01-0.07,0.01-0.1c1.58-15.89,3.09-31.44,3.19-41.59c0.09-8.81,1.3-17.81,2.91-25.98
			c1.49-7.54,3.32-14.39,4.9-19.73c1.12-3.76,3.21-7.07,5.97-9.66c1.97-1.85,4.27-3.34,6.82-4.35c0.7-0.29,1.4-0.53,2.12-0.74
			c10.29-2.99,24.55-6.69,28.41-5.55c10.46,3.08,18.23,21.49,23.73,44.96C1961.16,954.01,1963.54,1015.7,1960.87,1027.89z"/>
		<path class="st21" d="M1920.29,845.59c-3.71,7.09-17.52,13.23-23.28,15.48c0.07-0.36,0.13-0.73,0.19-1.09
			c0.93-5.26,1.73-9.79,1.73-9.79l16.88-8.41C1919.54,841.73,1921.81,842.67,1920.29,845.59z"/>
		<path class="st3" d="M1890.73,849.21c0,0,30.45,9.5,36.07-9.55c5.62-19.05,13.34-30.66-5.86-37.53s-25.14-0.72-28.57,5.18
			C1888.95,813.22,1882.96,846.25,1890.73,849.21z"/>
		<path class="st20" d="M1893.57,805.48c0,0,1.94,22.17,6.53,21.21c4.58-0.96,8.74-1.68,8.07,5.01c-0.67,6.68-7.03,14.4,7.1,15.58
			c14.13,1.18,34.45-35.26,30.56-42.16C1934.63,785.21,1877.38,781.19,1893.57,805.48z"/>
		<path class="st9" d="M1871.01,1014.18c0.66-15.4,1.67-39.47,1.8-41.35c0-0.03,0.01-0.07,0.01-0.1l51.69-30.91
			C1924.51,941.82,1926.51,1013.97,1871.01,1014.18z"/>
		<path class="st3" d="M1829.92,949.51c0,0-10.5-7.11-12.5-7.73c-1.99-0.62-8.52-1.29-8.83-0.78c-0.3,0.51-1.2,2.09-0.06,2.62
			s2.56,0.35,2.14,0.72c-0.43,0.37-4.72-1.67-5.71,0.52c-0.99,2.19-1.86,9.69,3.18,11.97c5.04,2.27,17.48,0.22,18.37,0.48
			C1834.12,959.52,1829.92,949.51,1829.92,949.51z"/>
		<path class="st9" d="M1829.82,947.58c0,0,51.27,8.72,55.82,6.5c7.25-3.53-2.81-55.55-2.81-55.55s-0.43-11.79,13.34-14.57
			c11.97-2.42,23.51,6.55,23.51,6.55s10.5,9.4,9.16,19.82c-2.97,23.1-7.6,70.09-23.05,77.29c-19.93,9.29-77.6-25.76-77.6-25.76
			s-1.92-2.35-1.65-6.72C1826.78,951.29,1829.82,947.58,1829.82,947.58z"/>
		<path class="st3" d="M1795.37,822.71c0,0-3.28-6.52-3.81-7.75c-0.53-1.22,0.75-0.96,2.02-0.28c1.26,0.68,2.99,4.47,4.93,4.01
			C1800.06,818.34,1795.37,822.71,1795.37,822.71z"/>
	</g>
</g>
</svg>
