<svg height="512pt" viewBox="0 0 512 512" width="512pt" xmlns="http://www.w3.org/2000/svg"><path d="m503.464844 68.265625c4.710937 0 8.535156-3.820313 8.535156-8.53125v-51.199219c0-4.710937-3.824219-8.535156-8.535156-8.535156h-51.199219c-4.710937 0-8.53125 3.824219-8.53125 8.535156v17.066406h-375.46875v-17.066406c0-4.710937-3.820313-8.535156-8.53125-8.535156h-51.199219c-4.710937 0-8.535156 3.824219-8.535156 8.535156v51.199219c0 4.710937 3.824219 8.53125 8.535156 8.53125h17.066406v375.46875h-17.066406c-4.710937 0-8.535156 3.820313-8.535156 8.53125v51.199219c0 4.710937 3.824219 8.535156 8.535156 8.535156h51.199219c4.710937 0 8.53125-3.824219 8.53125-8.535156v-17.066406h375.46875v17.066406c0 4.710937 3.820313 8.535156 8.53125 8.535156h51.199219c4.710937 0 8.535156-3.824219 8.535156-8.535156v-51.199219c0-4.710937-3.824219-8.53125-8.535156-8.53125h-17.066406v-375.46875zm-34.132813 375.46875h-17.066406c-4.710937 0-8.53125 3.820313-8.53125 8.53125v17.066406h-375.46875v-17.066406c0-4.710937-3.820313-8.53125-8.53125-8.53125h-17.066406v-375.46875h17.066406c4.710937 0 8.53125-3.820313 8.53125-8.53125v-17.066406h375.46875v17.066406c0 4.710937 3.820313 8.53125 8.53125 8.53125h17.066406zm0 0"/><path d="m384 102.398438h-264.535156c-4.707032 0-8.53125 3.824218-8.53125 8.535156v76.800781c0 4.710937 3.824218 8.53125 8.53125 8.53125h42.667968c4.710938 0 8.535157-3.820313 8.535157-8.53125v-25.601563h51.199219v204.800782h-42.667969c-4.710938 0-8.53125 3.824218-8.53125 8.53125v42.667968c0 4.710938 3.820312 8.535157 8.53125 8.535157h145.066406c4.710937 0 8.535156-3.824219 8.535156-8.535157v-42.667968c0-4.707032-3.824219-8.53125-8.535156-8.53125h-42.664063v-204.800782h51.199219v25.601563c0 4.710937 3.820313 8.53125 8.53125 8.53125h42.667969c4.710938 0 8.535156-3.820313 8.535156-8.53125v-76.800781c0-4.710938-3.824218-8.535156-8.535156-8.535156zm0 0"/></svg>